G75*
%MOIN*%
%OFA0B0*%
%FSLAX24Y24*%
%IPPOS*%
%LPD*%
%AMOC8*
5,1,8,0,0,1.08239X$1,22.5*
%
%ADD10C,0.0000*%
%ADD11C,0.0070*%
%ADD12C,0.0100*%
%ADD13C,0.0060*%
%ADD14C,0.0200*%
%ADD15C,0.0010*%
%ADD16R,0.0100X0.0200*%
%ADD17C,0.0050*%
%ADD18R,0.0800X0.0200*%
%ADD19R,0.0200X0.0400*%
%ADD20R,0.0200X0.0800*%
%ADD21R,0.0400X0.0200*%
%ADD22R,0.0200X0.0100*%
%ADD23R,0.0200X0.0200*%
%ADD24R,0.0400X0.0010*%
%ADD25R,0.0760X0.0010*%
%ADD26R,0.0960X0.0010*%
%ADD27R,0.1030X0.0010*%
%ADD28R,0.1120X0.0010*%
%ADD29R,0.1190X0.0010*%
%ADD30R,0.1220X0.0010*%
%ADD31R,0.1260X0.0010*%
%ADD32R,0.1300X0.0010*%
%ADD33R,0.1320X0.0010*%
%ADD34R,0.1350X0.0010*%
%ADD35R,0.1370X0.0010*%
%ADD36R,0.1380X0.0010*%
%ADD37R,0.1400X0.0010*%
%ADD38R,0.1420X0.0010*%
%ADD39R,0.0600X0.0010*%
%ADD40R,0.0610X0.0010*%
%ADD41R,0.0420X0.0010*%
%ADD42R,0.0330X0.0010*%
%ADD43R,0.0360X0.0010*%
%ADD44R,0.0320X0.0010*%
%ADD45R,0.0280X0.0010*%
%ADD46R,0.0300X0.0010*%
%ADD47R,0.0260X0.0010*%
%ADD48R,0.0270X0.0010*%
%ADD49R,0.0240X0.0010*%
%ADD50R,0.0250X0.0010*%
%ADD51R,0.0230X0.0010*%
%ADD52R,0.0220X0.0010*%
%ADD53R,0.0210X0.0010*%
%ADD54R,0.0200X0.0010*%
%ADD55R,0.0190X0.0010*%
%ADD56R,0.0180X0.0010*%
%ADD57R,0.0170X0.0010*%
%ADD58R,0.0480X0.0010*%
%ADD59R,0.1410X0.0010*%
%ADD60R,0.1390X0.0010*%
%ADD61R,0.1360X0.0010*%
%ADD62R,0.1330X0.0010*%
%ADD63R,0.1310X0.0010*%
%ADD64R,0.1210X0.0010*%
%ADD65R,0.1160X0.0010*%
%ADD66R,0.1090X0.0010*%
%ADD67R,0.0970X0.0010*%
%ADD68R,0.0840X0.0010*%
%ADD69R,0.0660X0.0010*%
%ADD70R,0.0050X0.0010*%
%ADD71R,0.0790X0.0010*%
%ADD72R,0.0800X0.0010*%
%ADD73R,0.0780X0.0010*%
%ADD74R,0.0310X0.0010*%
%ADD75R,0.0290X0.0010*%
%ADD76R,0.0150X0.0010*%
%ADD77R,0.0160X0.0010*%
%ADD78R,0.0140X0.0010*%
%ADD79R,0.0130X0.0010*%
%ADD80R,0.0640X0.0010*%
%ADD81R,0.0590X0.0010*%
%ADD82R,0.0560X0.0010*%
%ADD83R,0.0540X0.0010*%
%ADD84R,0.0500X0.0010*%
%ADD85R,0.0470X0.0010*%
%ADD86R,0.0430X0.0010*%
%ADD87R,0.0030X0.0010*%
%ADD88R,0.0040X0.0010*%
%ADD89R,0.0020X0.0010*%
D10*
X000642Y000180D02*
X000642Y008054D01*
X021902Y008054D01*
X021902Y000180D01*
X000642Y000180D01*
D11*
X014771Y007184D02*
X014881Y007184D01*
X014826Y007184D02*
X014826Y007514D01*
X014771Y007514D02*
X014881Y007514D01*
X015017Y007404D02*
X015017Y007184D01*
X015017Y007294D02*
X015127Y007404D01*
X015182Y007404D01*
X015324Y007349D02*
X015379Y007404D01*
X015544Y007404D01*
X015692Y007404D02*
X015692Y007184D01*
X015692Y007294D02*
X015802Y007404D01*
X015857Y007404D01*
X015999Y007349D02*
X015999Y007239D01*
X016054Y007184D01*
X016164Y007184D01*
X016219Y007239D01*
X016219Y007349D01*
X016164Y007404D01*
X016054Y007404D01*
X015999Y007349D01*
X016367Y007404D02*
X016422Y007404D01*
X016422Y007184D01*
X016367Y007184D02*
X016477Y007184D01*
X016613Y007239D02*
X016613Y007349D01*
X016668Y007404D01*
X016833Y007404D01*
X016981Y007349D02*
X017201Y007349D01*
X017349Y007349D02*
X017570Y007349D01*
X017570Y007514D02*
X017570Y007184D01*
X017349Y007184D02*
X017349Y007514D01*
X017718Y007514D02*
X017938Y007514D01*
X017828Y007514D02*
X017828Y007184D01*
X018086Y007184D02*
X018086Y007514D01*
X018251Y007514D01*
X018306Y007459D01*
X018306Y007349D01*
X018251Y007294D01*
X018086Y007294D01*
X018454Y007239D02*
X018454Y007459D01*
X018509Y007514D01*
X018620Y007514D01*
X018675Y007459D01*
X018823Y007349D02*
X019043Y007349D01*
X019191Y007294D02*
X019356Y007294D01*
X019411Y007349D01*
X019411Y007459D01*
X019356Y007514D01*
X019191Y007514D01*
X019191Y007184D01*
X019301Y007294D02*
X019411Y007184D01*
X019559Y007239D02*
X019559Y007349D01*
X019614Y007404D01*
X019724Y007404D01*
X019780Y007349D01*
X019780Y007294D01*
X019559Y007294D01*
X019559Y007239D02*
X019614Y007184D01*
X019724Y007184D01*
X019928Y007184D02*
X019928Y007404D01*
X019983Y007404D01*
X020038Y007349D01*
X020093Y007404D01*
X020148Y007349D01*
X020148Y007184D01*
X020038Y007184D02*
X020038Y007349D01*
X020296Y007349D02*
X020296Y007239D01*
X020351Y007184D01*
X020461Y007184D01*
X020516Y007239D01*
X020516Y007349D01*
X020461Y007404D01*
X020351Y007404D01*
X020296Y007349D01*
X020664Y007404D02*
X020774Y007404D01*
X020719Y007459D02*
X020719Y007239D01*
X020774Y007184D01*
X020910Y007239D02*
X020910Y007349D01*
X020965Y007404D01*
X021075Y007404D01*
X021130Y007349D01*
X021130Y007294D01*
X020910Y007294D01*
X020910Y007239D02*
X020965Y007184D01*
X021075Y007184D01*
X018675Y007239D02*
X018620Y007184D01*
X018509Y007184D01*
X018454Y007239D01*
X016833Y007184D02*
X016668Y007184D01*
X016613Y007239D01*
X016833Y007184D02*
X016833Y007514D01*
X016422Y007514D02*
X016422Y007569D01*
X015544Y007514D02*
X015544Y007184D01*
X015379Y007184D01*
X015324Y007239D01*
X015324Y007349D01*
D12*
X016869Y006530D02*
X016969Y006530D01*
X017019Y006480D01*
X017919Y006480D01*
X017969Y006530D01*
X018069Y006530D01*
X017919Y005880D02*
X017019Y005880D01*
X016969Y005830D01*
X016869Y005830D01*
X017688Y005570D02*
X017888Y005570D01*
X017955Y005504D01*
X017955Y005370D01*
X017888Y005303D01*
X017688Y005303D01*
X017821Y005303D02*
X017955Y005170D01*
X017969Y005030D02*
X017919Y004980D01*
X017019Y004980D01*
X016969Y005030D01*
X016869Y005030D01*
X017688Y005170D02*
X017688Y005570D01*
X018148Y005570D02*
X018148Y005370D01*
X018282Y005437D01*
X018348Y005437D01*
X018415Y005370D01*
X018415Y005237D01*
X018348Y005170D01*
X018215Y005170D01*
X018148Y005237D01*
X018069Y005030D02*
X017969Y005030D01*
X018148Y005570D02*
X018415Y005570D01*
X018069Y005830D02*
X017969Y005830D01*
X017919Y005880D01*
X017919Y004380D02*
X017019Y004380D01*
X016969Y004330D01*
X016869Y004330D01*
X017688Y004070D02*
X017888Y004070D01*
X017955Y004004D01*
X017955Y003870D01*
X017888Y003803D01*
X017688Y003803D01*
X017821Y003803D02*
X017955Y003670D01*
X017688Y003670D02*
X017688Y004070D01*
X018148Y003870D02*
X018415Y003870D01*
X018348Y004070D02*
X018148Y003870D01*
X018348Y003670D02*
X018348Y004070D01*
X018069Y004330D02*
X017969Y004330D01*
X017919Y004380D01*
X017969Y003530D02*
X017919Y003480D01*
X017019Y003480D01*
X016969Y003530D01*
X016869Y003530D01*
X017969Y003530D02*
X018069Y003530D01*
X019067Y003284D02*
X019067Y002084D01*
X019767Y002084D01*
X019767Y003284D01*
X019067Y003284D01*
X018069Y002830D02*
X017969Y002830D01*
X017919Y002880D01*
X017019Y002880D01*
X016969Y002830D01*
X016869Y002830D01*
X017688Y002570D02*
X017888Y002570D01*
X017955Y002504D01*
X017955Y002370D01*
X017888Y002303D01*
X017688Y002303D01*
X017688Y002170D02*
X017688Y002570D01*
X018148Y002504D02*
X018215Y002570D01*
X018348Y002570D01*
X018415Y002504D01*
X018415Y002437D01*
X018148Y002170D01*
X018415Y002170D01*
X018069Y002030D02*
X016869Y002030D01*
X016869Y001330D01*
X018069Y001330D01*
X018069Y002030D01*
X017955Y002170D02*
X017821Y002303D01*
X015290Y001978D02*
X015290Y001778D01*
X014890Y001778D01*
X014490Y001778D01*
X014490Y001978D01*
X015290Y001978D01*
X013890Y002078D02*
X013892Y002141D01*
X013898Y002203D01*
X013908Y002265D01*
X013921Y002327D01*
X013939Y002387D01*
X013960Y002446D01*
X013985Y002504D01*
X014014Y002560D01*
X014046Y002614D01*
X014081Y002666D01*
X014119Y002715D01*
X014161Y002763D01*
X014205Y002807D01*
X014253Y002849D01*
X014302Y002887D01*
X014354Y002922D01*
X014408Y002954D01*
X014464Y002983D01*
X014522Y003008D01*
X014581Y003029D01*
X014641Y003047D01*
X014703Y003060D01*
X014765Y003070D01*
X014827Y003076D01*
X014890Y003078D01*
X014953Y003076D01*
X015015Y003070D01*
X015077Y003060D01*
X015139Y003047D01*
X015199Y003029D01*
X015258Y003008D01*
X015316Y002983D01*
X015372Y002954D01*
X015426Y002922D01*
X015478Y002887D01*
X015527Y002849D01*
X015575Y002807D01*
X015619Y002763D01*
X015661Y002715D01*
X015699Y002666D01*
X015734Y002614D01*
X015766Y002560D01*
X015795Y002504D01*
X015820Y002446D01*
X015841Y002387D01*
X015859Y002327D01*
X015872Y002265D01*
X015882Y002203D01*
X015888Y002141D01*
X015890Y002078D01*
X015888Y002015D01*
X015882Y001953D01*
X015872Y001891D01*
X015859Y001829D01*
X015841Y001769D01*
X015820Y001710D01*
X015795Y001652D01*
X015766Y001596D01*
X015734Y001542D01*
X015699Y001490D01*
X015661Y001441D01*
X015619Y001393D01*
X015575Y001349D01*
X015527Y001307D01*
X015478Y001269D01*
X015426Y001234D01*
X015372Y001202D01*
X015316Y001173D01*
X015258Y001148D01*
X015199Y001127D01*
X015139Y001109D01*
X015077Y001096D01*
X015015Y001086D01*
X014953Y001080D01*
X014890Y001078D01*
X014827Y001080D01*
X014765Y001086D01*
X014703Y001096D01*
X014641Y001109D01*
X014581Y001127D01*
X014522Y001148D01*
X014464Y001173D01*
X014408Y001202D01*
X014354Y001234D01*
X014302Y001269D01*
X014253Y001307D01*
X014205Y001349D01*
X014161Y001393D01*
X014119Y001441D01*
X014081Y001490D01*
X014046Y001542D01*
X014014Y001596D01*
X013985Y001652D01*
X013960Y001710D01*
X013939Y001769D01*
X013921Y001829D01*
X013908Y001891D01*
X013898Y001953D01*
X013892Y002015D01*
X013890Y002078D01*
X014340Y002328D02*
X014340Y002628D01*
X014890Y002678D02*
X014890Y002328D01*
X013476Y002680D02*
X013476Y002780D01*
X013476Y002680D02*
X013426Y002630D01*
X013426Y001730D01*
X013476Y001680D01*
X013476Y001580D01*
X012826Y001730D02*
X012826Y002630D01*
X012776Y002680D01*
X012776Y002780D01*
X011547Y002680D02*
X011547Y006680D01*
X009547Y006680D01*
X009547Y002680D01*
X010297Y002680D01*
X010299Y002710D01*
X010304Y002740D01*
X010313Y002769D01*
X010326Y002796D01*
X010341Y002822D01*
X010360Y002846D01*
X010381Y002867D01*
X010405Y002886D01*
X010431Y002901D01*
X010458Y002914D01*
X010487Y002923D01*
X010517Y002928D01*
X010547Y002930D01*
X010577Y002928D01*
X010607Y002923D01*
X010636Y002914D01*
X010663Y002901D01*
X010689Y002886D01*
X010713Y002867D01*
X010734Y002846D01*
X010753Y002822D01*
X010768Y002796D01*
X010781Y002769D01*
X010790Y002740D01*
X010795Y002710D01*
X010797Y002680D01*
X011547Y002680D01*
X011437Y002113D02*
X009737Y002113D01*
X009720Y002111D01*
X009703Y002107D01*
X009687Y002100D01*
X009673Y002090D01*
X009660Y002077D01*
X009650Y002063D01*
X009643Y002047D01*
X009639Y002030D01*
X009637Y002013D01*
X009637Y001213D01*
X009639Y001196D01*
X009643Y001179D01*
X009650Y001163D01*
X009660Y001149D01*
X009673Y001136D01*
X009687Y001126D01*
X009703Y001119D01*
X009720Y001115D01*
X009737Y001113D01*
X011437Y001113D01*
X011454Y001115D01*
X011471Y001119D01*
X011487Y001126D01*
X011501Y001136D01*
X011514Y001149D01*
X011524Y001163D01*
X011531Y001179D01*
X011535Y001196D01*
X011537Y001213D01*
X011537Y002013D01*
X011535Y002030D01*
X011531Y002047D01*
X011524Y002063D01*
X011514Y002077D01*
X011501Y002090D01*
X011487Y002100D01*
X011471Y002107D01*
X011454Y002111D01*
X011437Y002113D01*
X012116Y001867D02*
X012182Y001734D01*
X012316Y001600D01*
X012316Y001801D01*
X012383Y001867D01*
X012449Y001867D01*
X012516Y001801D01*
X012516Y001667D01*
X012449Y001600D01*
X012316Y001600D01*
X012316Y001407D02*
X012383Y001340D01*
X012383Y001140D01*
X012516Y001140D02*
X012116Y001140D01*
X012116Y001340D01*
X012182Y001407D01*
X012316Y001407D01*
X012383Y001273D02*
X012516Y001407D01*
X012776Y001580D02*
X012776Y001680D01*
X012826Y001730D01*
X014190Y001578D02*
X014490Y001578D01*
X014340Y001428D02*
X014340Y001728D01*
X014890Y001778D02*
X014890Y001478D01*
X017739Y001095D02*
X017739Y000695D01*
X017939Y000695D01*
X018006Y000761D01*
X018006Y001028D01*
X017939Y001095D01*
X017739Y001095D01*
X018199Y000961D02*
X018333Y001095D01*
X018333Y000695D01*
X018466Y000695D02*
X018199Y000695D01*
X019015Y000683D02*
X019215Y000683D01*
X019282Y000749D01*
X019282Y001016D01*
X019215Y001083D01*
X019015Y001083D01*
X019015Y000683D01*
X019475Y000683D02*
X019742Y000950D01*
X019742Y001016D01*
X019676Y001083D01*
X019542Y001083D01*
X019475Y001016D01*
X019475Y000683D02*
X019742Y000683D01*
X014440Y003194D02*
X014373Y003128D01*
X014106Y003128D01*
X014039Y003194D01*
X014039Y003328D01*
X014106Y003395D01*
X014173Y003588D02*
X014039Y003721D01*
X014440Y003721D01*
X014440Y003588D02*
X014440Y003855D01*
X014373Y003395D02*
X014440Y003328D01*
X014440Y003194D01*
X010687Y001913D02*
X010687Y001613D01*
X010737Y001613D01*
X010687Y001613D02*
X010687Y001313D01*
X010487Y001313D02*
X010487Y001613D01*
X010487Y001913D01*
X010487Y001613D02*
X010437Y001613D01*
X010683Y000963D02*
X010616Y000897D01*
X010616Y000630D01*
X010683Y000563D01*
X010816Y000563D01*
X010883Y000630D01*
X011076Y000563D02*
X011343Y000830D01*
X011343Y000897D01*
X011276Y000963D01*
X011143Y000963D01*
X011076Y000897D01*
X010883Y000897D02*
X010816Y000963D01*
X010683Y000963D01*
X011076Y000563D02*
X011343Y000563D01*
X008676Y000664D02*
X008609Y000597D01*
X008475Y000597D01*
X008409Y000664D01*
X008542Y000797D02*
X008609Y000797D01*
X008676Y000731D01*
X008676Y000664D01*
X008609Y000797D02*
X008676Y000864D01*
X008676Y000931D01*
X008609Y000997D01*
X008475Y000997D01*
X008409Y000931D01*
X008215Y000931D02*
X008215Y000797D01*
X008148Y000731D01*
X007948Y000731D01*
X008082Y000731D02*
X008215Y000597D01*
X007948Y000597D02*
X007948Y000997D01*
X008148Y000997D01*
X008215Y000931D01*
X008053Y001330D02*
X007953Y001330D01*
X007903Y001380D01*
X007003Y001380D01*
X006953Y001330D01*
X006853Y001330D01*
X007003Y001980D02*
X007903Y001980D01*
X007953Y002030D01*
X008053Y002030D01*
X007003Y001980D02*
X006953Y002030D01*
X006853Y002030D01*
X003917Y002180D02*
X003952Y002228D01*
X003989Y002273D01*
X004029Y002316D01*
X004072Y002357D01*
X004118Y002394D01*
X004166Y002429D01*
X004216Y002460D01*
X004268Y002488D01*
X004322Y002512D01*
X004377Y002533D01*
X004433Y002550D01*
X004491Y002564D01*
X004549Y002573D01*
X004607Y002579D01*
X004666Y002581D01*
X004725Y002579D01*
X004784Y002573D01*
X004842Y002564D01*
X004900Y002550D01*
X004956Y002533D01*
X005011Y002513D01*
X005065Y002488D01*
X005117Y002460D01*
X005167Y002429D01*
X005215Y002395D01*
X005261Y002358D01*
X005304Y002317D01*
X005344Y002274D01*
X005382Y002229D01*
X005416Y002181D01*
X005447Y002131D01*
X005475Y002079D01*
X005499Y002025D01*
X005520Y001970D01*
X005537Y001913D01*
X005551Y001856D01*
X005560Y001798D01*
X005566Y001739D01*
X005568Y001680D01*
X005566Y001621D01*
X005560Y001562D01*
X005551Y001504D01*
X005537Y001447D01*
X005520Y001390D01*
X005499Y001335D01*
X005475Y001281D01*
X005447Y001229D01*
X005416Y001179D01*
X005382Y001131D01*
X005344Y001086D01*
X005304Y001043D01*
X005261Y001002D01*
X005215Y000965D01*
X005167Y000931D01*
X005117Y000900D01*
X005065Y000872D01*
X005011Y000847D01*
X004956Y000827D01*
X004900Y000810D01*
X004842Y000796D01*
X004784Y000787D01*
X004725Y000781D01*
X004666Y000779D01*
X004607Y000781D01*
X004549Y000787D01*
X004491Y000796D01*
X004433Y000810D01*
X004377Y000827D01*
X004322Y000848D01*
X004268Y000872D01*
X004216Y000900D01*
X004166Y000931D01*
X004118Y000966D01*
X004072Y001003D01*
X004029Y001044D01*
X003989Y001087D01*
X003952Y001132D01*
X003917Y001180D01*
X003917Y002180D01*
X010795Y006969D02*
X010861Y006903D01*
X010995Y006903D01*
X011062Y006969D01*
X011062Y007303D01*
X011255Y007169D02*
X011388Y007303D01*
X011388Y006903D01*
X011255Y006903D02*
X011522Y006903D01*
X010795Y006969D02*
X010795Y007303D01*
D13*
X007289Y007800D02*
X007289Y006400D01*
X007289Y005350D01*
X007189Y005350D01*
X007189Y006400D01*
X007189Y006600D01*
X007189Y007200D01*
X007189Y007700D01*
X006089Y007700D01*
X005589Y007700D01*
X004489Y007700D01*
X004489Y007200D01*
X004489Y006600D01*
X004489Y006400D01*
X004789Y006400D01*
X004789Y006300D01*
X005139Y006300D01*
X005139Y006400D01*
X005539Y006400D01*
X005539Y006500D01*
X006139Y006500D01*
X006139Y006400D01*
X006589Y006400D01*
X006589Y006300D01*
X006889Y006300D01*
X006889Y006400D01*
X007189Y006400D01*
X006489Y006750D02*
X006139Y006750D01*
X005639Y006900D01*
X005839Y006900D02*
X005839Y007050D01*
X005739Y007050D01*
X005839Y007050D02*
X005939Y007050D01*
X006089Y007300D02*
X005589Y007300D01*
X005589Y007700D01*
X005339Y007900D02*
X004839Y007900D01*
X004839Y007800D01*
X007289Y007800D01*
X006839Y007800D02*
X006839Y007900D01*
X006339Y007900D01*
X005339Y007900D01*
X005339Y008050D01*
X006339Y008050D01*
X006339Y007900D01*
X006089Y007700D02*
X006089Y007300D01*
X004839Y007800D02*
X004389Y007800D01*
X004389Y006400D01*
X004389Y005350D01*
X004489Y005350D01*
X004489Y006400D01*
X005189Y006750D02*
X005639Y006750D01*
X003425Y005985D02*
X003175Y006235D01*
X002675Y006235D01*
X002425Y005985D01*
X002425Y005485D01*
X002675Y005235D01*
X002425Y004985D01*
X002425Y004485D01*
X002675Y004235D01*
X003175Y004235D01*
X003425Y004485D01*
X003425Y004985D01*
X003175Y005235D01*
X002675Y005235D01*
X003175Y005235D02*
X003425Y005485D01*
X003425Y005985D01*
X003175Y004235D02*
X003425Y003985D01*
X003425Y003485D01*
X003175Y003235D01*
X003425Y002985D01*
X003425Y002485D01*
X003175Y002235D01*
X002675Y002235D01*
X002425Y002485D01*
X002425Y002985D01*
X002675Y003235D01*
X002425Y003485D01*
X002425Y003985D01*
X002675Y004235D01*
X002675Y003235D02*
X003175Y003235D01*
X006753Y001930D02*
X006753Y001430D01*
X008153Y001430D02*
X008153Y001930D01*
X010287Y001613D02*
X010437Y001613D01*
X010737Y001613D02*
X010887Y001613D01*
X012876Y001480D02*
X013376Y001480D01*
X013376Y002880D02*
X012876Y002880D01*
X016769Y002930D02*
X016769Y003430D01*
X018169Y003430D02*
X018169Y002930D01*
X020130Y002891D02*
X020130Y002391D01*
X020380Y002141D01*
X020880Y002141D01*
X021130Y002391D01*
X021130Y002891D01*
X020880Y003141D01*
X020380Y003141D01*
X020130Y002891D01*
X020380Y003141D02*
X020130Y003391D01*
X020130Y003891D01*
X020380Y004141D01*
X020130Y004391D01*
X020130Y004891D01*
X020380Y005141D01*
X020130Y005391D01*
X020130Y005891D01*
X020380Y006141D01*
X020880Y006141D01*
X021130Y005891D01*
X021130Y005391D01*
X020880Y005141D01*
X021130Y004891D01*
X021130Y004391D01*
X020880Y004141D01*
X020380Y004141D01*
X020880Y004141D02*
X021130Y003891D01*
X021130Y003391D01*
X020880Y003141D01*
X018169Y004430D02*
X018169Y004930D01*
X016769Y004930D02*
X016769Y004430D01*
X020380Y005141D02*
X020880Y005141D01*
X018169Y005930D02*
X018169Y006430D01*
X016769Y006430D02*
X016769Y005930D01*
D14*
X016669Y006180D02*
X016469Y006180D01*
X018269Y006180D02*
X018469Y006180D01*
X018469Y004680D02*
X018269Y004680D01*
X016669Y004680D02*
X016469Y004680D01*
X016469Y003180D02*
X016669Y003180D01*
X018269Y003180D02*
X018469Y003180D01*
X013126Y003180D02*
X013126Y002980D01*
X013126Y001380D02*
X013126Y001180D01*
X008453Y001680D02*
X008253Y001680D01*
X006653Y001680D02*
X006453Y001680D01*
D15*
X006709Y001426D02*
X006799Y001426D01*
X006798Y001425D02*
X006801Y001413D01*
X006806Y001401D01*
X006814Y001391D01*
X006824Y001383D01*
X006836Y001378D01*
X006848Y001375D01*
X006849Y001286D01*
X006848Y001285D01*
X006826Y001287D01*
X006805Y001293D01*
X006785Y001302D01*
X006767Y001313D01*
X006750Y001327D01*
X006736Y001344D01*
X006725Y001362D01*
X006716Y001382D01*
X006710Y001403D01*
X006708Y001425D01*
X006717Y001425D01*
X006720Y001403D01*
X006726Y001381D01*
X006736Y001361D01*
X006749Y001342D01*
X006765Y001326D01*
X006784Y001313D01*
X006804Y001303D01*
X006826Y001297D01*
X006848Y001294D01*
X006848Y001303D01*
X006827Y001306D01*
X006807Y001312D01*
X006788Y001321D01*
X006771Y001333D01*
X006756Y001348D01*
X006744Y001365D01*
X006735Y001384D01*
X006729Y001404D01*
X006726Y001425D01*
X006735Y001425D01*
X006738Y001406D01*
X006743Y001387D01*
X006752Y001370D01*
X006763Y001354D01*
X006777Y001340D01*
X006793Y001329D01*
X006810Y001320D01*
X006829Y001315D01*
X006848Y001312D01*
X006848Y001321D01*
X006828Y001324D01*
X006809Y001330D01*
X006791Y001340D01*
X006776Y001353D01*
X006763Y001368D01*
X006753Y001386D01*
X006747Y001405D01*
X006744Y001425D01*
X006753Y001425D01*
X006756Y001407D01*
X006762Y001389D01*
X006771Y001373D01*
X006782Y001359D01*
X006796Y001348D01*
X006812Y001339D01*
X006830Y001333D01*
X006848Y001330D01*
X006848Y001339D01*
X006832Y001342D01*
X006816Y001347D01*
X006801Y001355D01*
X006789Y001366D01*
X006778Y001378D01*
X006770Y001393D01*
X006765Y001409D01*
X006762Y001425D01*
X006771Y001425D01*
X006774Y001408D01*
X006780Y001393D01*
X006789Y001378D01*
X006801Y001366D01*
X006816Y001357D01*
X006831Y001351D01*
X006848Y001348D01*
X006848Y001357D01*
X006833Y001360D01*
X006819Y001365D01*
X006807Y001373D01*
X006796Y001384D01*
X006788Y001396D01*
X006783Y001410D01*
X006780Y001425D01*
X006789Y001425D01*
X006792Y001410D01*
X006798Y001397D01*
X006808Y001385D01*
X006820Y001375D01*
X006833Y001369D01*
X006848Y001366D01*
X008057Y001286D02*
X008057Y001376D01*
X008058Y001375D02*
X008070Y001378D01*
X008082Y001383D01*
X008092Y001391D01*
X008100Y001401D01*
X008105Y001413D01*
X008108Y001425D01*
X008197Y001426D01*
X008198Y001425D01*
X008196Y001403D01*
X008190Y001382D01*
X008181Y001362D01*
X008170Y001344D01*
X008156Y001327D01*
X008139Y001313D01*
X008121Y001302D01*
X008101Y001293D01*
X008080Y001287D01*
X008058Y001285D01*
X008058Y001294D01*
X008080Y001297D01*
X008102Y001303D01*
X008122Y001313D01*
X008141Y001326D01*
X008157Y001342D01*
X008170Y001361D01*
X008180Y001381D01*
X008186Y001403D01*
X008189Y001425D01*
X008180Y001425D01*
X008177Y001404D01*
X008171Y001384D01*
X008162Y001365D01*
X008150Y001348D01*
X008135Y001333D01*
X008118Y001321D01*
X008099Y001312D01*
X008079Y001306D01*
X008058Y001303D01*
X008058Y001312D01*
X008077Y001315D01*
X008096Y001320D01*
X008113Y001329D01*
X008129Y001340D01*
X008143Y001354D01*
X008154Y001370D01*
X008163Y001387D01*
X008168Y001406D01*
X008171Y001425D01*
X008162Y001425D01*
X008159Y001405D01*
X008153Y001386D01*
X008143Y001368D01*
X008130Y001353D01*
X008115Y001340D01*
X008097Y001330D01*
X008078Y001324D01*
X008058Y001321D01*
X008058Y001330D01*
X008076Y001333D01*
X008094Y001339D01*
X008110Y001348D01*
X008124Y001359D01*
X008135Y001373D01*
X008144Y001389D01*
X008150Y001407D01*
X008153Y001425D01*
X008144Y001425D01*
X008141Y001409D01*
X008136Y001393D01*
X008128Y001378D01*
X008117Y001366D01*
X008105Y001355D01*
X008090Y001347D01*
X008074Y001342D01*
X008058Y001339D01*
X008058Y001348D01*
X008075Y001351D01*
X008090Y001357D01*
X008105Y001366D01*
X008117Y001378D01*
X008126Y001393D01*
X008132Y001408D01*
X008135Y001425D01*
X008126Y001425D01*
X008123Y001410D01*
X008118Y001396D01*
X008110Y001384D01*
X008099Y001373D01*
X008087Y001365D01*
X008073Y001360D01*
X008058Y001357D01*
X008058Y001366D01*
X008073Y001369D01*
X008086Y001375D01*
X008098Y001385D01*
X008108Y001397D01*
X008114Y001410D01*
X008117Y001425D01*
X008197Y001934D02*
X008107Y001934D01*
X008108Y001935D02*
X008105Y001947D01*
X008100Y001959D01*
X008092Y001969D01*
X008082Y001977D01*
X008070Y001982D01*
X008058Y001985D01*
X008057Y002074D01*
X008058Y002075D01*
X008080Y002073D01*
X008101Y002067D01*
X008121Y002058D01*
X008139Y002047D01*
X008156Y002033D01*
X008170Y002016D01*
X008181Y001998D01*
X008190Y001978D01*
X008196Y001957D01*
X008198Y001935D01*
X008189Y001935D01*
X008186Y001957D01*
X008180Y001979D01*
X008170Y001999D01*
X008157Y002018D01*
X008141Y002034D01*
X008122Y002047D01*
X008102Y002057D01*
X008080Y002063D01*
X008058Y002066D01*
X008058Y002057D01*
X008079Y002054D01*
X008099Y002048D01*
X008118Y002039D01*
X008135Y002027D01*
X008150Y002012D01*
X008162Y001995D01*
X008171Y001976D01*
X008177Y001956D01*
X008180Y001935D01*
X008171Y001935D01*
X008168Y001954D01*
X008163Y001973D01*
X008154Y001990D01*
X008143Y002006D01*
X008129Y002020D01*
X008113Y002031D01*
X008096Y002040D01*
X008077Y002045D01*
X008058Y002048D01*
X008058Y002039D01*
X008078Y002036D01*
X008097Y002030D01*
X008115Y002020D01*
X008130Y002007D01*
X008143Y001992D01*
X008153Y001974D01*
X008159Y001955D01*
X008162Y001935D01*
X008153Y001935D01*
X008150Y001953D01*
X008144Y001971D01*
X008135Y001987D01*
X008124Y002001D01*
X008110Y002012D01*
X008094Y002021D01*
X008076Y002027D01*
X008058Y002030D01*
X008058Y002021D01*
X008074Y002018D01*
X008090Y002013D01*
X008105Y002005D01*
X008117Y001994D01*
X008128Y001982D01*
X008136Y001967D01*
X008141Y001951D01*
X008144Y001935D01*
X008135Y001935D01*
X008132Y001952D01*
X008126Y001967D01*
X008117Y001982D01*
X008105Y001994D01*
X008090Y002003D01*
X008075Y002009D01*
X008058Y002012D01*
X008058Y002003D01*
X008073Y002000D01*
X008087Y001995D01*
X008099Y001987D01*
X008110Y001976D01*
X008118Y001964D01*
X008123Y001950D01*
X008126Y001935D01*
X008117Y001935D01*
X008114Y001950D01*
X008108Y001963D01*
X008098Y001975D01*
X008086Y001985D01*
X008073Y001991D01*
X008058Y001994D01*
X006849Y002074D02*
X006849Y001984D01*
X006848Y001985D02*
X006836Y001982D01*
X006824Y001977D01*
X006814Y001969D01*
X006806Y001959D01*
X006801Y001947D01*
X006798Y001935D01*
X006709Y001934D01*
X006708Y001935D01*
X006710Y001957D01*
X006716Y001978D01*
X006725Y001998D01*
X006736Y002016D01*
X006750Y002033D01*
X006767Y002047D01*
X006785Y002058D01*
X006805Y002067D01*
X006826Y002073D01*
X006848Y002075D01*
X006848Y002066D01*
X006826Y002063D01*
X006804Y002057D01*
X006784Y002047D01*
X006765Y002034D01*
X006749Y002018D01*
X006736Y001999D01*
X006726Y001979D01*
X006720Y001957D01*
X006717Y001935D01*
X006726Y001935D01*
X006729Y001956D01*
X006735Y001976D01*
X006744Y001995D01*
X006756Y002012D01*
X006771Y002027D01*
X006788Y002039D01*
X006807Y002048D01*
X006827Y002054D01*
X006848Y002057D01*
X006848Y002048D01*
X006829Y002045D01*
X006810Y002040D01*
X006793Y002031D01*
X006777Y002020D01*
X006763Y002006D01*
X006752Y001990D01*
X006743Y001973D01*
X006738Y001954D01*
X006735Y001935D01*
X006744Y001935D01*
X006747Y001955D01*
X006753Y001974D01*
X006763Y001992D01*
X006776Y002007D01*
X006791Y002020D01*
X006809Y002030D01*
X006828Y002036D01*
X006848Y002039D01*
X006848Y002030D01*
X006830Y002027D01*
X006812Y002021D01*
X006796Y002012D01*
X006782Y002001D01*
X006771Y001987D01*
X006762Y001971D01*
X006756Y001953D01*
X006753Y001935D01*
X006762Y001935D01*
X006765Y001951D01*
X006770Y001967D01*
X006778Y001982D01*
X006789Y001994D01*
X006801Y002005D01*
X006816Y002013D01*
X006832Y002018D01*
X006848Y002021D01*
X006848Y002012D01*
X006831Y002009D01*
X006816Y002003D01*
X006801Y001994D01*
X006789Y001982D01*
X006780Y001967D01*
X006774Y001952D01*
X006771Y001935D01*
X006780Y001935D01*
X006783Y001950D01*
X006788Y001964D01*
X006796Y001976D01*
X006807Y001987D01*
X006819Y001995D01*
X006833Y002000D01*
X006848Y002003D01*
X006848Y001994D01*
X006833Y001991D01*
X006820Y001985D01*
X006808Y001975D01*
X006798Y001963D01*
X006792Y001950D01*
X006789Y001935D01*
X004946Y002120D02*
X004899Y002044D01*
X004864Y002063D01*
X004827Y002078D01*
X004789Y002090D01*
X004750Y002098D01*
X004710Y002102D01*
X004670Y002103D01*
X004631Y002099D01*
X004591Y002092D01*
X004553Y002081D01*
X004516Y002066D01*
X004480Y002048D01*
X004447Y002026D01*
X004416Y002001D01*
X004387Y001974D01*
X004361Y001943D01*
X004338Y001911D01*
X004262Y001957D01*
X004261Y001958D01*
X004286Y001994D01*
X004313Y002027D01*
X004344Y002058D01*
X004377Y002086D01*
X004412Y002111D01*
X004449Y002133D01*
X004488Y002152D01*
X004529Y002167D01*
X004570Y002179D01*
X004613Y002188D01*
X004656Y002192D01*
X004699Y002193D01*
X004743Y002190D01*
X004785Y002183D01*
X004828Y002173D01*
X004869Y002159D01*
X004908Y002142D01*
X004946Y002121D01*
X004942Y002113D01*
X004904Y002134D01*
X004865Y002151D01*
X004825Y002164D01*
X004784Y002174D01*
X004742Y002181D01*
X004699Y002184D01*
X004657Y002183D01*
X004614Y002179D01*
X004573Y002171D01*
X004532Y002159D01*
X004492Y002144D01*
X004454Y002125D01*
X004417Y002104D01*
X004382Y002079D01*
X004350Y002051D01*
X004320Y002021D01*
X004293Y001988D01*
X004269Y001953D01*
X004277Y001948D01*
X004300Y001983D01*
X004327Y002015D01*
X004356Y002045D01*
X004388Y002072D01*
X004422Y002096D01*
X004458Y002117D01*
X004495Y002136D01*
X004534Y002150D01*
X004575Y002162D01*
X004616Y002170D01*
X004657Y002174D01*
X004699Y002175D01*
X004741Y002172D01*
X004782Y002166D01*
X004822Y002156D01*
X004862Y002142D01*
X004900Y002126D01*
X004937Y002106D01*
X004932Y002098D01*
X004896Y002118D01*
X004859Y002134D01*
X004820Y002147D01*
X004780Y002157D01*
X004740Y002163D01*
X004699Y002166D01*
X004658Y002165D01*
X004617Y002161D01*
X004577Y002153D01*
X004537Y002142D01*
X004499Y002127D01*
X004462Y002110D01*
X004427Y002089D01*
X004394Y002065D01*
X004362Y002038D01*
X004334Y002009D01*
X004308Y001977D01*
X004284Y001944D01*
X004292Y001939D01*
X004316Y001974D01*
X004344Y002006D01*
X004374Y002036D01*
X004407Y002063D01*
X004442Y002087D01*
X004479Y002108D01*
X004518Y002125D01*
X004558Y002139D01*
X004600Y002149D01*
X004642Y002155D01*
X004684Y002157D01*
X004727Y002155D01*
X004769Y002150D01*
X004810Y002140D01*
X004851Y002127D01*
X004890Y002111D01*
X004927Y002090D01*
X004923Y002083D01*
X004886Y002102D01*
X004848Y002119D01*
X004808Y002132D01*
X004767Y002141D01*
X004726Y002146D01*
X004684Y002148D01*
X004643Y002146D01*
X004601Y002140D01*
X004561Y002130D01*
X004521Y002117D01*
X004483Y002100D01*
X004447Y002080D01*
X004412Y002056D01*
X004380Y002030D01*
X004350Y002000D01*
X004323Y001969D01*
X004300Y001934D01*
X004307Y001930D01*
X004331Y001963D01*
X004357Y001994D01*
X004386Y002023D01*
X004418Y002049D01*
X004451Y002072D01*
X004487Y002092D01*
X004524Y002109D01*
X004563Y002122D01*
X004603Y002131D01*
X004643Y002137D01*
X004684Y002139D01*
X004725Y002137D01*
X004766Y002132D01*
X004806Y002123D01*
X004844Y002110D01*
X004882Y002094D01*
X004918Y002075D01*
X004913Y002067D01*
X004878Y002086D01*
X004841Y002102D01*
X004803Y002114D01*
X004764Y002123D01*
X004724Y002128D01*
X004684Y002130D01*
X004644Y002128D01*
X004605Y002122D01*
X004566Y002113D01*
X004528Y002100D01*
X004491Y002084D01*
X004456Y002065D01*
X004423Y002042D01*
X004392Y002017D01*
X004364Y001988D01*
X004338Y001958D01*
X004315Y001925D01*
X004323Y001920D01*
X004345Y001952D01*
X004370Y001982D01*
X004398Y002010D01*
X004428Y002035D01*
X004461Y002057D01*
X004495Y002076D01*
X004531Y002092D01*
X004568Y002104D01*
X004606Y002113D01*
X004645Y002119D01*
X004684Y002121D01*
X004724Y002119D01*
X004762Y002114D01*
X004801Y002106D01*
X004838Y002094D01*
X004874Y002078D01*
X004909Y002060D01*
X004904Y002052D01*
X004870Y002070D01*
X004835Y002085D01*
X004798Y002097D01*
X004761Y002105D01*
X004723Y002110D01*
X004684Y002112D01*
X004646Y002110D01*
X004608Y002105D01*
X004571Y002096D01*
X004534Y002083D01*
X004499Y002068D01*
X004466Y002049D01*
X004434Y002028D01*
X004404Y002003D01*
X004377Y001976D01*
X004352Y001947D01*
X004330Y001915D01*
X004406Y001037D02*
X004438Y001121D01*
X004438Y001120D02*
X004483Y001105D01*
X004529Y001094D01*
X004576Y001086D01*
X004624Y001082D01*
X004672Y001082D01*
X004719Y001086D01*
X004766Y001094D01*
X004813Y001105D01*
X004858Y001120D01*
X004902Y001139D01*
X004944Y001161D01*
X004985Y001186D01*
X005023Y001214D01*
X005059Y001246D01*
X005092Y001280D01*
X005123Y001316D01*
X005150Y001356D01*
X005175Y001397D01*
X005254Y001355D01*
X005229Y001312D01*
X005201Y001271D01*
X005170Y001232D01*
X005137Y001196D01*
X005101Y001162D01*
X005062Y001131D01*
X005022Y001102D01*
X004979Y001077D01*
X004935Y001055D01*
X004890Y001036D01*
X004843Y001020D01*
X004795Y001008D01*
X004746Y000999D01*
X004697Y000994D01*
X004647Y000992D01*
X004598Y000994D01*
X004549Y000999D01*
X004500Y001008D01*
X004452Y001020D01*
X004405Y001036D01*
X004408Y001045D01*
X004457Y001028D01*
X004507Y001016D01*
X004558Y001007D01*
X004609Y001002D01*
X004660Y001001D01*
X004712Y001004D01*
X004763Y001011D01*
X004813Y001021D01*
X004862Y001036D01*
X004910Y001054D01*
X004957Y001075D01*
X005002Y001100D01*
X005045Y001129D01*
X005085Y001160D01*
X005123Y001195D01*
X005159Y001232D01*
X005191Y001272D01*
X005220Y001314D01*
X005246Y001359D01*
X005238Y001363D01*
X005213Y001319D01*
X005184Y001278D01*
X005152Y001238D01*
X005117Y001201D01*
X005079Y001167D01*
X005039Y001136D01*
X004997Y001108D01*
X004953Y001083D01*
X004907Y001062D01*
X004859Y001044D01*
X004811Y001030D01*
X004761Y001020D01*
X004711Y001013D01*
X004660Y001010D01*
X004609Y001011D01*
X004559Y001016D01*
X004509Y001025D01*
X004460Y001037D01*
X004412Y001053D01*
X004415Y001061D01*
X004462Y001046D01*
X004511Y001033D01*
X004560Y001025D01*
X004610Y001020D01*
X004660Y001019D01*
X004710Y001022D01*
X004760Y001028D01*
X004808Y001039D01*
X004857Y001053D01*
X004903Y001070D01*
X004949Y001091D01*
X004992Y001116D01*
X005034Y001143D01*
X005074Y001174D01*
X005111Y001208D01*
X005145Y001244D01*
X005176Y001283D01*
X005205Y001324D01*
X005230Y001367D01*
X005222Y001371D01*
X005197Y001329D01*
X005169Y001288D01*
X005138Y001250D01*
X005104Y001214D01*
X005068Y001181D01*
X005029Y001151D01*
X004988Y001123D01*
X004945Y001099D01*
X004900Y001079D01*
X004854Y001061D01*
X004806Y001048D01*
X004758Y001037D01*
X004709Y001031D01*
X004660Y001028D01*
X004611Y001029D01*
X004561Y001034D01*
X004513Y001042D01*
X004465Y001054D01*
X004418Y001070D01*
X004421Y001078D01*
X004468Y001063D01*
X004515Y001051D01*
X004563Y001043D01*
X004611Y001038D01*
X004660Y001037D01*
X004708Y001040D01*
X004757Y001046D01*
X004804Y001056D01*
X004851Y001070D01*
X004896Y001087D01*
X004941Y001107D01*
X004983Y001131D01*
X005023Y001158D01*
X005062Y001188D01*
X005098Y001221D01*
X005131Y001256D01*
X005162Y001294D01*
X005190Y001334D01*
X005214Y001376D01*
X005206Y001380D01*
X005182Y001338D01*
X005155Y001299D01*
X005125Y001262D01*
X005092Y001227D01*
X005056Y001195D01*
X005018Y001165D01*
X004978Y001139D01*
X004936Y001115D01*
X004893Y001095D01*
X004848Y001078D01*
X004802Y001065D01*
X004755Y001055D01*
X004707Y001049D01*
X004660Y001046D01*
X004612Y001047D01*
X004564Y001052D01*
X004517Y001060D01*
X004470Y001071D01*
X004425Y001087D01*
X004428Y001095D01*
X004473Y001080D01*
X004519Y001069D01*
X004565Y001061D01*
X004612Y001056D01*
X004659Y001055D01*
X004707Y001058D01*
X004754Y001064D01*
X004800Y001074D01*
X004845Y001087D01*
X004889Y001104D01*
X004932Y001123D01*
X004974Y001146D01*
X005013Y001173D01*
X005050Y001202D01*
X005085Y001233D01*
X005118Y001268D01*
X005148Y001304D01*
X005175Y001343D01*
X005198Y001384D01*
X005190Y001388D01*
X005165Y001346D01*
X005137Y001306D01*
X005106Y001268D01*
X005071Y001233D01*
X005034Y001200D01*
X004995Y001171D01*
X004953Y001145D01*
X004910Y001122D01*
X004864Y001103D01*
X004818Y001088D01*
X004770Y001076D01*
X004721Y001068D01*
X004672Y001064D01*
X004623Y001065D01*
X004574Y001068D01*
X004526Y001076D01*
X004478Y001088D01*
X004431Y001103D01*
X004434Y001112D01*
X004480Y001097D01*
X004527Y001085D01*
X004575Y001077D01*
X004624Y001073D01*
X004672Y001073D01*
X004720Y001077D01*
X004768Y001085D01*
X004815Y001096D01*
X004861Y001112D01*
X004906Y001130D01*
X004949Y001153D01*
X004990Y001178D01*
X005029Y001207D01*
X005065Y001239D01*
X005099Y001274D01*
X005130Y001311D01*
X005158Y001351D01*
X005183Y001392D01*
X004927Y002323D02*
X004895Y002239D01*
X004895Y002240D02*
X004850Y002255D01*
X004804Y002266D01*
X004757Y002274D01*
X004709Y002278D01*
X004661Y002278D01*
X004614Y002274D01*
X004567Y002266D01*
X004520Y002255D01*
X004475Y002240D01*
X004431Y002221D01*
X004389Y002199D01*
X004348Y002174D01*
X004310Y002146D01*
X004274Y002114D01*
X004241Y002080D01*
X004210Y002044D01*
X004183Y002004D01*
X004158Y001963D01*
X004079Y002005D01*
X004104Y002048D01*
X004132Y002089D01*
X004163Y002128D01*
X004196Y002164D01*
X004232Y002198D01*
X004271Y002229D01*
X004311Y002258D01*
X004354Y002283D01*
X004398Y002305D01*
X004443Y002324D01*
X004490Y002340D01*
X004538Y002352D01*
X004587Y002361D01*
X004636Y002366D01*
X004686Y002368D01*
X004735Y002366D01*
X004784Y002361D01*
X004833Y002352D01*
X004881Y002340D01*
X004928Y002324D01*
X004925Y002315D01*
X004876Y002332D01*
X004826Y002344D01*
X004775Y002353D01*
X004724Y002358D01*
X004673Y002359D01*
X004621Y002356D01*
X004570Y002349D01*
X004520Y002339D01*
X004471Y002324D01*
X004423Y002306D01*
X004376Y002285D01*
X004331Y002260D01*
X004288Y002231D01*
X004248Y002200D01*
X004210Y002165D01*
X004174Y002128D01*
X004142Y002088D01*
X004113Y002046D01*
X004087Y002001D01*
X004095Y001997D01*
X004120Y002041D01*
X004149Y002082D01*
X004181Y002122D01*
X004216Y002159D01*
X004254Y002193D01*
X004294Y002224D01*
X004336Y002252D01*
X004380Y002277D01*
X004426Y002298D01*
X004474Y002316D01*
X004522Y002330D01*
X004572Y002340D01*
X004622Y002347D01*
X004673Y002350D01*
X004724Y002349D01*
X004774Y002344D01*
X004824Y002335D01*
X004873Y002323D01*
X004921Y002307D01*
X004918Y002299D01*
X004871Y002314D01*
X004822Y002327D01*
X004773Y002335D01*
X004723Y002340D01*
X004673Y002341D01*
X004623Y002338D01*
X004573Y002332D01*
X004525Y002321D01*
X004476Y002307D01*
X004430Y002290D01*
X004384Y002269D01*
X004341Y002244D01*
X004299Y002217D01*
X004259Y002186D01*
X004222Y002152D01*
X004188Y002116D01*
X004157Y002077D01*
X004128Y002036D01*
X004103Y001993D01*
X004111Y001989D01*
X004136Y002031D01*
X004164Y002072D01*
X004195Y002110D01*
X004229Y002146D01*
X004265Y002179D01*
X004304Y002209D01*
X004345Y002237D01*
X004388Y002261D01*
X004433Y002281D01*
X004479Y002299D01*
X004527Y002312D01*
X004575Y002323D01*
X004624Y002329D01*
X004673Y002332D01*
X004722Y002331D01*
X004772Y002326D01*
X004820Y002318D01*
X004868Y002306D01*
X004915Y002290D01*
X004912Y002282D01*
X004865Y002297D01*
X004818Y002309D01*
X004770Y002317D01*
X004722Y002322D01*
X004673Y002323D01*
X004625Y002320D01*
X004576Y002314D01*
X004529Y002304D01*
X004482Y002290D01*
X004437Y002273D01*
X004392Y002253D01*
X004350Y002229D01*
X004310Y002202D01*
X004271Y002172D01*
X004235Y002139D01*
X004202Y002104D01*
X004171Y002066D01*
X004143Y002026D01*
X004119Y001984D01*
X004127Y001980D01*
X004151Y002022D01*
X004178Y002061D01*
X004208Y002098D01*
X004241Y002133D01*
X004277Y002165D01*
X004315Y002195D01*
X004355Y002221D01*
X004397Y002245D01*
X004440Y002265D01*
X004485Y002282D01*
X004531Y002295D01*
X004578Y002305D01*
X004626Y002311D01*
X004673Y002314D01*
X004721Y002313D01*
X004769Y002308D01*
X004816Y002300D01*
X004863Y002289D01*
X004908Y002273D01*
X004905Y002265D01*
X004860Y002280D01*
X004814Y002291D01*
X004768Y002299D01*
X004721Y002304D01*
X004674Y002305D01*
X004626Y002302D01*
X004579Y002296D01*
X004533Y002286D01*
X004488Y002273D01*
X004444Y002256D01*
X004401Y002237D01*
X004359Y002214D01*
X004320Y002187D01*
X004283Y002158D01*
X004248Y002127D01*
X004215Y002092D01*
X004185Y002056D01*
X004158Y002017D01*
X004135Y001976D01*
X004143Y001972D01*
X004168Y002014D01*
X004196Y002054D01*
X004227Y002092D01*
X004262Y002127D01*
X004299Y002160D01*
X004338Y002189D01*
X004380Y002215D01*
X004423Y002238D01*
X004469Y002257D01*
X004515Y002272D01*
X004563Y002284D01*
X004612Y002292D01*
X004661Y002296D01*
X004710Y002295D01*
X004759Y002292D01*
X004807Y002284D01*
X004855Y002272D01*
X004902Y002257D01*
X004899Y002248D01*
X004853Y002263D01*
X004806Y002275D01*
X004758Y002283D01*
X004709Y002287D01*
X004661Y002287D01*
X004613Y002283D01*
X004565Y002275D01*
X004518Y002264D01*
X004472Y002248D01*
X004427Y002230D01*
X004384Y002207D01*
X004343Y002182D01*
X004304Y002153D01*
X004268Y002121D01*
X004234Y002086D01*
X004203Y002049D01*
X004175Y002009D01*
X004150Y001968D01*
X004388Y001240D02*
X004435Y001316D01*
X004470Y001297D01*
X004507Y001282D01*
X004545Y001270D01*
X004584Y001262D01*
X004624Y001258D01*
X004664Y001257D01*
X004703Y001261D01*
X004743Y001268D01*
X004781Y001279D01*
X004818Y001294D01*
X004854Y001312D01*
X004887Y001334D01*
X004918Y001359D01*
X004947Y001386D01*
X004973Y001417D01*
X004996Y001449D01*
X005072Y001403D01*
X005073Y001402D01*
X005048Y001366D01*
X005021Y001333D01*
X004990Y001302D01*
X004957Y001274D01*
X004922Y001249D01*
X004885Y001227D01*
X004846Y001208D01*
X004805Y001193D01*
X004764Y001181D01*
X004721Y001172D01*
X004678Y001168D01*
X004635Y001167D01*
X004591Y001170D01*
X004549Y001177D01*
X004506Y001187D01*
X004465Y001201D01*
X004426Y001218D01*
X004388Y001239D01*
X004392Y001247D01*
X004430Y001226D01*
X004469Y001209D01*
X004509Y001196D01*
X004550Y001186D01*
X004592Y001179D01*
X004635Y001176D01*
X004677Y001177D01*
X004720Y001181D01*
X004761Y001189D01*
X004802Y001201D01*
X004842Y001216D01*
X004880Y001235D01*
X004917Y001256D01*
X004952Y001281D01*
X004984Y001309D01*
X005014Y001339D01*
X005041Y001372D01*
X005065Y001407D01*
X005057Y001412D01*
X005034Y001377D01*
X005007Y001345D01*
X004978Y001315D01*
X004946Y001288D01*
X004912Y001264D01*
X004876Y001243D01*
X004839Y001224D01*
X004800Y001210D01*
X004759Y001198D01*
X004718Y001190D01*
X004677Y001186D01*
X004635Y001185D01*
X004593Y001188D01*
X004552Y001194D01*
X004512Y001204D01*
X004472Y001218D01*
X004434Y001234D01*
X004397Y001254D01*
X004402Y001262D01*
X004438Y001242D01*
X004475Y001226D01*
X004514Y001213D01*
X004554Y001203D01*
X004594Y001197D01*
X004635Y001194D01*
X004676Y001195D01*
X004717Y001199D01*
X004757Y001207D01*
X004797Y001218D01*
X004835Y001233D01*
X004872Y001250D01*
X004907Y001271D01*
X004940Y001295D01*
X004972Y001322D01*
X005000Y001351D01*
X005026Y001383D01*
X005050Y001416D01*
X005042Y001421D01*
X005018Y001386D01*
X004990Y001354D01*
X004960Y001324D01*
X004927Y001297D01*
X004892Y001273D01*
X004855Y001252D01*
X004816Y001235D01*
X004776Y001221D01*
X004734Y001211D01*
X004692Y001205D01*
X004650Y001203D01*
X004607Y001205D01*
X004565Y001210D01*
X004524Y001220D01*
X004483Y001233D01*
X004444Y001249D01*
X004407Y001270D01*
X004411Y001277D01*
X004448Y001258D01*
X004486Y001241D01*
X004526Y001228D01*
X004567Y001219D01*
X004608Y001214D01*
X004650Y001212D01*
X004691Y001214D01*
X004733Y001220D01*
X004773Y001230D01*
X004813Y001243D01*
X004851Y001260D01*
X004887Y001280D01*
X004922Y001304D01*
X004954Y001330D01*
X004984Y001360D01*
X005011Y001391D01*
X005034Y001426D01*
X005027Y001430D01*
X005003Y001397D01*
X004977Y001366D01*
X004948Y001337D01*
X004916Y001311D01*
X004883Y001288D01*
X004847Y001268D01*
X004810Y001251D01*
X004771Y001238D01*
X004731Y001229D01*
X004691Y001223D01*
X004650Y001221D01*
X004609Y001223D01*
X004568Y001228D01*
X004528Y001237D01*
X004490Y001250D01*
X004452Y001266D01*
X004416Y001285D01*
X004421Y001293D01*
X004456Y001274D01*
X004493Y001258D01*
X004531Y001246D01*
X004570Y001237D01*
X004610Y001232D01*
X004650Y001230D01*
X004690Y001232D01*
X004729Y001238D01*
X004768Y001247D01*
X004806Y001260D01*
X004843Y001276D01*
X004878Y001295D01*
X004911Y001318D01*
X004942Y001343D01*
X004970Y001372D01*
X004996Y001402D01*
X005019Y001435D01*
X005011Y001440D01*
X004989Y001408D01*
X004964Y001378D01*
X004936Y001350D01*
X004906Y001325D01*
X004873Y001303D01*
X004839Y001284D01*
X004803Y001268D01*
X004766Y001256D01*
X004728Y001247D01*
X004689Y001241D01*
X004650Y001239D01*
X004610Y001241D01*
X004572Y001246D01*
X004533Y001254D01*
X004496Y001266D01*
X004460Y001282D01*
X004425Y001300D01*
X004430Y001308D01*
X004464Y001290D01*
X004499Y001275D01*
X004536Y001263D01*
X004573Y001255D01*
X004611Y001250D01*
X004650Y001248D01*
X004688Y001250D01*
X004726Y001255D01*
X004763Y001264D01*
X004800Y001277D01*
X004835Y001292D01*
X004868Y001311D01*
X004900Y001332D01*
X004930Y001357D01*
X004957Y001384D01*
X004982Y001413D01*
X005004Y001445D01*
X012732Y001576D02*
X012822Y001576D01*
X012821Y001575D02*
X012824Y001563D01*
X012829Y001551D01*
X012837Y001541D01*
X012847Y001533D01*
X012859Y001528D01*
X012871Y001525D01*
X012872Y001436D01*
X012871Y001435D01*
X012849Y001437D01*
X012828Y001443D01*
X012808Y001452D01*
X012790Y001463D01*
X012773Y001477D01*
X012759Y001494D01*
X012748Y001512D01*
X012739Y001532D01*
X012733Y001553D01*
X012731Y001575D01*
X012740Y001575D01*
X012743Y001553D01*
X012749Y001531D01*
X012759Y001511D01*
X012772Y001492D01*
X012788Y001476D01*
X012807Y001463D01*
X012827Y001453D01*
X012849Y001447D01*
X012871Y001444D01*
X012871Y001453D01*
X012850Y001456D01*
X012830Y001462D01*
X012811Y001471D01*
X012794Y001483D01*
X012779Y001498D01*
X012767Y001515D01*
X012758Y001534D01*
X012752Y001554D01*
X012749Y001575D01*
X012758Y001575D01*
X012761Y001556D01*
X012766Y001537D01*
X012775Y001520D01*
X012786Y001504D01*
X012800Y001490D01*
X012816Y001479D01*
X012833Y001470D01*
X012852Y001465D01*
X012871Y001462D01*
X012871Y001471D01*
X012851Y001474D01*
X012832Y001480D01*
X012814Y001490D01*
X012799Y001503D01*
X012786Y001518D01*
X012776Y001536D01*
X012770Y001555D01*
X012767Y001575D01*
X012776Y001575D01*
X012779Y001557D01*
X012785Y001539D01*
X012794Y001523D01*
X012805Y001509D01*
X012819Y001498D01*
X012835Y001489D01*
X012853Y001483D01*
X012871Y001480D01*
X012871Y001489D01*
X012855Y001492D01*
X012839Y001497D01*
X012824Y001505D01*
X012812Y001516D01*
X012801Y001528D01*
X012793Y001543D01*
X012788Y001559D01*
X012785Y001575D01*
X012794Y001575D01*
X012797Y001558D01*
X012803Y001543D01*
X012812Y001528D01*
X012824Y001516D01*
X012839Y001507D01*
X012854Y001501D01*
X012871Y001498D01*
X012871Y001507D01*
X012856Y001510D01*
X012842Y001515D01*
X012830Y001523D01*
X012819Y001534D01*
X012811Y001546D01*
X012806Y001560D01*
X012803Y001575D01*
X012812Y001575D01*
X012815Y001560D01*
X012821Y001547D01*
X012831Y001535D01*
X012843Y001525D01*
X012856Y001519D01*
X012871Y001516D01*
X013380Y001436D02*
X013380Y001526D01*
X013381Y001525D02*
X013393Y001528D01*
X013405Y001533D01*
X013415Y001541D01*
X013423Y001551D01*
X013428Y001563D01*
X013431Y001575D01*
X013520Y001576D01*
X013521Y001575D01*
X013519Y001553D01*
X013513Y001532D01*
X013504Y001512D01*
X013493Y001494D01*
X013479Y001477D01*
X013462Y001463D01*
X013444Y001452D01*
X013424Y001443D01*
X013403Y001437D01*
X013381Y001435D01*
X013381Y001444D01*
X013403Y001447D01*
X013425Y001453D01*
X013445Y001463D01*
X013464Y001476D01*
X013480Y001492D01*
X013493Y001511D01*
X013503Y001531D01*
X013509Y001553D01*
X013512Y001575D01*
X013503Y001575D01*
X013500Y001554D01*
X013494Y001534D01*
X013485Y001515D01*
X013473Y001498D01*
X013458Y001483D01*
X013441Y001471D01*
X013422Y001462D01*
X013402Y001456D01*
X013381Y001453D01*
X013381Y001462D01*
X013400Y001465D01*
X013419Y001470D01*
X013436Y001479D01*
X013452Y001490D01*
X013466Y001504D01*
X013477Y001520D01*
X013486Y001537D01*
X013491Y001556D01*
X013494Y001575D01*
X013485Y001575D01*
X013482Y001555D01*
X013476Y001536D01*
X013466Y001518D01*
X013453Y001503D01*
X013438Y001490D01*
X013420Y001480D01*
X013401Y001474D01*
X013381Y001471D01*
X013381Y001480D01*
X013399Y001483D01*
X013417Y001489D01*
X013433Y001498D01*
X013447Y001509D01*
X013458Y001523D01*
X013467Y001539D01*
X013473Y001557D01*
X013476Y001575D01*
X013467Y001575D01*
X013464Y001559D01*
X013459Y001543D01*
X013451Y001528D01*
X013440Y001516D01*
X013428Y001505D01*
X013413Y001497D01*
X013397Y001492D01*
X013381Y001489D01*
X013381Y001498D01*
X013398Y001501D01*
X013413Y001507D01*
X013428Y001516D01*
X013440Y001528D01*
X013449Y001543D01*
X013455Y001558D01*
X013458Y001575D01*
X013449Y001575D01*
X013446Y001560D01*
X013441Y001546D01*
X013433Y001534D01*
X013422Y001523D01*
X013410Y001515D01*
X013396Y001510D01*
X013381Y001507D01*
X013381Y001516D01*
X013396Y001519D01*
X013409Y001525D01*
X013421Y001535D01*
X013431Y001547D01*
X013437Y001560D01*
X013440Y001575D01*
X013520Y002784D02*
X013430Y002784D01*
X013431Y002785D02*
X013428Y002797D01*
X013423Y002809D01*
X013415Y002819D01*
X013405Y002827D01*
X013393Y002832D01*
X013381Y002835D01*
X013380Y002924D01*
X013381Y002925D01*
X013403Y002923D01*
X013424Y002917D01*
X013444Y002908D01*
X013462Y002897D01*
X013479Y002883D01*
X013493Y002866D01*
X013504Y002848D01*
X013513Y002828D01*
X013519Y002807D01*
X013521Y002785D01*
X013512Y002785D01*
X013509Y002807D01*
X013503Y002829D01*
X013493Y002849D01*
X013480Y002868D01*
X013464Y002884D01*
X013445Y002897D01*
X013425Y002907D01*
X013403Y002913D01*
X013381Y002916D01*
X013381Y002907D01*
X013402Y002904D01*
X013422Y002898D01*
X013441Y002889D01*
X013458Y002877D01*
X013473Y002862D01*
X013485Y002845D01*
X013494Y002826D01*
X013500Y002806D01*
X013503Y002785D01*
X013494Y002785D01*
X013491Y002804D01*
X013486Y002823D01*
X013477Y002840D01*
X013466Y002856D01*
X013452Y002870D01*
X013436Y002881D01*
X013419Y002890D01*
X013400Y002895D01*
X013381Y002898D01*
X013381Y002889D01*
X013401Y002886D01*
X013420Y002880D01*
X013438Y002870D01*
X013453Y002857D01*
X013466Y002842D01*
X013476Y002824D01*
X013482Y002805D01*
X013485Y002785D01*
X013476Y002785D01*
X013473Y002803D01*
X013467Y002821D01*
X013458Y002837D01*
X013447Y002851D01*
X013433Y002862D01*
X013417Y002871D01*
X013399Y002877D01*
X013381Y002880D01*
X013381Y002871D01*
X013397Y002868D01*
X013413Y002863D01*
X013428Y002855D01*
X013440Y002844D01*
X013451Y002832D01*
X013459Y002817D01*
X013464Y002801D01*
X013467Y002785D01*
X013458Y002785D01*
X013455Y002802D01*
X013449Y002817D01*
X013440Y002832D01*
X013428Y002844D01*
X013413Y002853D01*
X013398Y002859D01*
X013381Y002862D01*
X013381Y002853D01*
X013396Y002850D01*
X013410Y002845D01*
X013422Y002837D01*
X013433Y002826D01*
X013441Y002814D01*
X013446Y002800D01*
X013449Y002785D01*
X013440Y002785D01*
X013437Y002800D01*
X013431Y002813D01*
X013421Y002825D01*
X013409Y002835D01*
X013396Y002841D01*
X013381Y002844D01*
X012872Y002924D02*
X012872Y002834D01*
X012871Y002835D02*
X012859Y002832D01*
X012847Y002827D01*
X012837Y002819D01*
X012829Y002809D01*
X012824Y002797D01*
X012821Y002785D01*
X012732Y002784D01*
X012731Y002785D01*
X012733Y002807D01*
X012739Y002828D01*
X012748Y002848D01*
X012759Y002866D01*
X012773Y002883D01*
X012790Y002897D01*
X012808Y002908D01*
X012828Y002917D01*
X012849Y002923D01*
X012871Y002925D01*
X012871Y002916D01*
X012849Y002913D01*
X012827Y002907D01*
X012807Y002897D01*
X012788Y002884D01*
X012772Y002868D01*
X012759Y002849D01*
X012749Y002829D01*
X012743Y002807D01*
X012740Y002785D01*
X012749Y002785D01*
X012752Y002806D01*
X012758Y002826D01*
X012767Y002845D01*
X012779Y002862D01*
X012794Y002877D01*
X012811Y002889D01*
X012830Y002898D01*
X012850Y002904D01*
X012871Y002907D01*
X012871Y002898D01*
X012852Y002895D01*
X012833Y002890D01*
X012816Y002881D01*
X012800Y002870D01*
X012786Y002856D01*
X012775Y002840D01*
X012766Y002823D01*
X012761Y002804D01*
X012758Y002785D01*
X012767Y002785D01*
X012770Y002805D01*
X012776Y002824D01*
X012786Y002842D01*
X012799Y002857D01*
X012814Y002870D01*
X012832Y002880D01*
X012851Y002886D01*
X012871Y002889D01*
X012871Y002880D01*
X012853Y002877D01*
X012835Y002871D01*
X012819Y002862D01*
X012805Y002851D01*
X012794Y002837D01*
X012785Y002821D01*
X012779Y002803D01*
X012776Y002785D01*
X012785Y002785D01*
X012788Y002801D01*
X012793Y002817D01*
X012801Y002832D01*
X012812Y002844D01*
X012824Y002855D01*
X012839Y002863D01*
X012855Y002868D01*
X012871Y002871D01*
X012871Y002862D01*
X012854Y002859D01*
X012839Y002853D01*
X012824Y002844D01*
X012812Y002832D01*
X012803Y002817D01*
X012797Y002802D01*
X012794Y002785D01*
X012803Y002785D01*
X012806Y002800D01*
X012811Y002814D01*
X012819Y002826D01*
X012830Y002837D01*
X012842Y002845D01*
X012856Y002850D01*
X012871Y002853D01*
X012871Y002844D01*
X012856Y002841D01*
X012843Y002835D01*
X012831Y002825D01*
X012821Y002813D01*
X012815Y002800D01*
X012812Y002785D01*
X016725Y002926D02*
X016815Y002926D01*
X016814Y002925D02*
X016817Y002913D01*
X016822Y002901D01*
X016830Y002891D01*
X016840Y002883D01*
X016852Y002878D01*
X016864Y002875D01*
X016865Y002786D01*
X016864Y002785D01*
X016842Y002787D01*
X016821Y002793D01*
X016801Y002802D01*
X016783Y002813D01*
X016766Y002827D01*
X016752Y002844D01*
X016741Y002862D01*
X016732Y002882D01*
X016726Y002903D01*
X016724Y002925D01*
X016733Y002925D01*
X016736Y002903D01*
X016742Y002881D01*
X016752Y002861D01*
X016765Y002842D01*
X016781Y002826D01*
X016800Y002813D01*
X016820Y002803D01*
X016842Y002797D01*
X016864Y002794D01*
X016864Y002803D01*
X016843Y002806D01*
X016823Y002812D01*
X016804Y002821D01*
X016787Y002833D01*
X016772Y002848D01*
X016760Y002865D01*
X016751Y002884D01*
X016745Y002904D01*
X016742Y002925D01*
X016751Y002925D01*
X016754Y002906D01*
X016759Y002887D01*
X016768Y002870D01*
X016779Y002854D01*
X016793Y002840D01*
X016809Y002829D01*
X016826Y002820D01*
X016845Y002815D01*
X016864Y002812D01*
X016864Y002821D01*
X016844Y002824D01*
X016825Y002830D01*
X016807Y002840D01*
X016792Y002853D01*
X016779Y002868D01*
X016769Y002886D01*
X016763Y002905D01*
X016760Y002925D01*
X016769Y002925D01*
X016772Y002907D01*
X016778Y002889D01*
X016787Y002873D01*
X016798Y002859D01*
X016812Y002848D01*
X016828Y002839D01*
X016846Y002833D01*
X016864Y002830D01*
X016864Y002839D01*
X016848Y002842D01*
X016832Y002847D01*
X016817Y002855D01*
X016805Y002866D01*
X016794Y002878D01*
X016786Y002893D01*
X016781Y002909D01*
X016778Y002925D01*
X016787Y002925D01*
X016790Y002908D01*
X016796Y002893D01*
X016805Y002878D01*
X016817Y002866D01*
X016832Y002857D01*
X016847Y002851D01*
X016864Y002848D01*
X016864Y002857D01*
X016849Y002860D01*
X016835Y002865D01*
X016823Y002873D01*
X016812Y002884D01*
X016804Y002896D01*
X016799Y002910D01*
X016796Y002925D01*
X016805Y002925D01*
X016808Y002910D01*
X016814Y002897D01*
X016824Y002885D01*
X016836Y002875D01*
X016849Y002869D01*
X016864Y002866D01*
X018073Y002786D02*
X018073Y002876D01*
X018074Y002875D02*
X018086Y002878D01*
X018098Y002883D01*
X018108Y002891D01*
X018116Y002901D01*
X018121Y002913D01*
X018124Y002925D01*
X018213Y002926D01*
X018214Y002925D01*
X018212Y002903D01*
X018206Y002882D01*
X018197Y002862D01*
X018186Y002844D01*
X018172Y002827D01*
X018155Y002813D01*
X018137Y002802D01*
X018117Y002793D01*
X018096Y002787D01*
X018074Y002785D01*
X018074Y002794D01*
X018096Y002797D01*
X018118Y002803D01*
X018138Y002813D01*
X018157Y002826D01*
X018173Y002842D01*
X018186Y002861D01*
X018196Y002881D01*
X018202Y002903D01*
X018205Y002925D01*
X018196Y002925D01*
X018193Y002904D01*
X018187Y002884D01*
X018178Y002865D01*
X018166Y002848D01*
X018151Y002833D01*
X018134Y002821D01*
X018115Y002812D01*
X018095Y002806D01*
X018074Y002803D01*
X018074Y002812D01*
X018093Y002815D01*
X018112Y002820D01*
X018129Y002829D01*
X018145Y002840D01*
X018159Y002854D01*
X018170Y002870D01*
X018179Y002887D01*
X018184Y002906D01*
X018187Y002925D01*
X018178Y002925D01*
X018175Y002905D01*
X018169Y002886D01*
X018159Y002868D01*
X018146Y002853D01*
X018131Y002840D01*
X018113Y002830D01*
X018094Y002824D01*
X018074Y002821D01*
X018074Y002830D01*
X018092Y002833D01*
X018110Y002839D01*
X018126Y002848D01*
X018140Y002859D01*
X018151Y002873D01*
X018160Y002889D01*
X018166Y002907D01*
X018169Y002925D01*
X018160Y002925D01*
X018157Y002909D01*
X018152Y002893D01*
X018144Y002878D01*
X018133Y002866D01*
X018121Y002855D01*
X018106Y002847D01*
X018090Y002842D01*
X018074Y002839D01*
X018074Y002848D01*
X018091Y002851D01*
X018106Y002857D01*
X018121Y002866D01*
X018133Y002878D01*
X018142Y002893D01*
X018148Y002908D01*
X018151Y002925D01*
X018142Y002925D01*
X018139Y002910D01*
X018134Y002896D01*
X018126Y002884D01*
X018115Y002873D01*
X018103Y002865D01*
X018089Y002860D01*
X018074Y002857D01*
X018074Y002866D01*
X018089Y002869D01*
X018102Y002875D01*
X018114Y002885D01*
X018124Y002897D01*
X018130Y002910D01*
X018133Y002925D01*
X018213Y003434D02*
X018123Y003434D01*
X018124Y003435D02*
X018121Y003447D01*
X018116Y003459D01*
X018108Y003469D01*
X018098Y003477D01*
X018086Y003482D01*
X018074Y003485D01*
X018073Y003574D01*
X018074Y003575D01*
X018096Y003573D01*
X018117Y003567D01*
X018137Y003558D01*
X018155Y003547D01*
X018172Y003533D01*
X018186Y003516D01*
X018197Y003498D01*
X018206Y003478D01*
X018212Y003457D01*
X018214Y003435D01*
X018205Y003435D01*
X018202Y003457D01*
X018196Y003479D01*
X018186Y003499D01*
X018173Y003518D01*
X018157Y003534D01*
X018138Y003547D01*
X018118Y003557D01*
X018096Y003563D01*
X018074Y003566D01*
X018074Y003557D01*
X018095Y003554D01*
X018115Y003548D01*
X018134Y003539D01*
X018151Y003527D01*
X018166Y003512D01*
X018178Y003495D01*
X018187Y003476D01*
X018193Y003456D01*
X018196Y003435D01*
X018187Y003435D01*
X018184Y003454D01*
X018179Y003473D01*
X018170Y003490D01*
X018159Y003506D01*
X018145Y003520D01*
X018129Y003531D01*
X018112Y003540D01*
X018093Y003545D01*
X018074Y003548D01*
X018074Y003539D01*
X018094Y003536D01*
X018113Y003530D01*
X018131Y003520D01*
X018146Y003507D01*
X018159Y003492D01*
X018169Y003474D01*
X018175Y003455D01*
X018178Y003435D01*
X018169Y003435D01*
X018166Y003453D01*
X018160Y003471D01*
X018151Y003487D01*
X018140Y003501D01*
X018126Y003512D01*
X018110Y003521D01*
X018092Y003527D01*
X018074Y003530D01*
X018074Y003521D01*
X018090Y003518D01*
X018106Y003513D01*
X018121Y003505D01*
X018133Y003494D01*
X018144Y003482D01*
X018152Y003467D01*
X018157Y003451D01*
X018160Y003435D01*
X018151Y003435D01*
X018148Y003452D01*
X018142Y003467D01*
X018133Y003482D01*
X018121Y003494D01*
X018106Y003503D01*
X018091Y003509D01*
X018074Y003512D01*
X018074Y003503D01*
X018089Y003500D01*
X018103Y003495D01*
X018115Y003487D01*
X018126Y003476D01*
X018134Y003464D01*
X018139Y003450D01*
X018142Y003435D01*
X018133Y003435D01*
X018130Y003450D01*
X018124Y003463D01*
X018114Y003475D01*
X018102Y003485D01*
X018089Y003491D01*
X018074Y003494D01*
X016865Y003574D02*
X016865Y003484D01*
X016864Y003485D02*
X016852Y003482D01*
X016840Y003477D01*
X016830Y003469D01*
X016822Y003459D01*
X016817Y003447D01*
X016814Y003435D01*
X016725Y003434D01*
X016724Y003435D01*
X016726Y003457D01*
X016732Y003478D01*
X016741Y003498D01*
X016752Y003516D01*
X016766Y003533D01*
X016783Y003547D01*
X016801Y003558D01*
X016821Y003567D01*
X016842Y003573D01*
X016864Y003575D01*
X016864Y003566D01*
X016842Y003563D01*
X016820Y003557D01*
X016800Y003547D01*
X016781Y003534D01*
X016765Y003518D01*
X016752Y003499D01*
X016742Y003479D01*
X016736Y003457D01*
X016733Y003435D01*
X016742Y003435D01*
X016745Y003456D01*
X016751Y003476D01*
X016760Y003495D01*
X016772Y003512D01*
X016787Y003527D01*
X016804Y003539D01*
X016823Y003548D01*
X016843Y003554D01*
X016864Y003557D01*
X016864Y003548D01*
X016845Y003545D01*
X016826Y003540D01*
X016809Y003531D01*
X016793Y003520D01*
X016779Y003506D01*
X016768Y003490D01*
X016759Y003473D01*
X016754Y003454D01*
X016751Y003435D01*
X016760Y003435D01*
X016763Y003455D01*
X016769Y003474D01*
X016779Y003492D01*
X016792Y003507D01*
X016807Y003520D01*
X016825Y003530D01*
X016844Y003536D01*
X016864Y003539D01*
X016864Y003530D01*
X016846Y003527D01*
X016828Y003521D01*
X016812Y003512D01*
X016798Y003501D01*
X016787Y003487D01*
X016778Y003471D01*
X016772Y003453D01*
X016769Y003435D01*
X016778Y003435D01*
X016781Y003451D01*
X016786Y003467D01*
X016794Y003482D01*
X016805Y003494D01*
X016817Y003505D01*
X016832Y003513D01*
X016848Y003518D01*
X016864Y003521D01*
X016864Y003512D01*
X016847Y003509D01*
X016832Y003503D01*
X016817Y003494D01*
X016805Y003482D01*
X016796Y003467D01*
X016790Y003452D01*
X016787Y003435D01*
X016796Y003435D01*
X016799Y003450D01*
X016804Y003464D01*
X016812Y003476D01*
X016823Y003487D01*
X016835Y003495D01*
X016849Y003500D01*
X016864Y003503D01*
X016864Y003494D01*
X016849Y003491D01*
X016836Y003485D01*
X016824Y003475D01*
X016814Y003463D01*
X016808Y003450D01*
X016805Y003435D01*
X016725Y004426D02*
X016815Y004426D01*
X016814Y004425D02*
X016817Y004413D01*
X016822Y004401D01*
X016830Y004391D01*
X016840Y004383D01*
X016852Y004378D01*
X016864Y004375D01*
X016865Y004286D01*
X016864Y004285D01*
X016842Y004287D01*
X016821Y004293D01*
X016801Y004302D01*
X016783Y004313D01*
X016766Y004327D01*
X016752Y004344D01*
X016741Y004362D01*
X016732Y004382D01*
X016726Y004403D01*
X016724Y004425D01*
X016733Y004425D01*
X016736Y004403D01*
X016742Y004381D01*
X016752Y004361D01*
X016765Y004342D01*
X016781Y004326D01*
X016800Y004313D01*
X016820Y004303D01*
X016842Y004297D01*
X016864Y004294D01*
X016864Y004303D01*
X016843Y004306D01*
X016823Y004312D01*
X016804Y004321D01*
X016787Y004333D01*
X016772Y004348D01*
X016760Y004365D01*
X016751Y004384D01*
X016745Y004404D01*
X016742Y004425D01*
X016751Y004425D01*
X016754Y004406D01*
X016759Y004387D01*
X016768Y004370D01*
X016779Y004354D01*
X016793Y004340D01*
X016809Y004329D01*
X016826Y004320D01*
X016845Y004315D01*
X016864Y004312D01*
X016864Y004321D01*
X016844Y004324D01*
X016825Y004330D01*
X016807Y004340D01*
X016792Y004353D01*
X016779Y004368D01*
X016769Y004386D01*
X016763Y004405D01*
X016760Y004425D01*
X016769Y004425D01*
X016772Y004407D01*
X016778Y004389D01*
X016787Y004373D01*
X016798Y004359D01*
X016812Y004348D01*
X016828Y004339D01*
X016846Y004333D01*
X016864Y004330D01*
X016864Y004339D01*
X016848Y004342D01*
X016832Y004347D01*
X016817Y004355D01*
X016805Y004366D01*
X016794Y004378D01*
X016786Y004393D01*
X016781Y004409D01*
X016778Y004425D01*
X016787Y004425D01*
X016790Y004408D01*
X016796Y004393D01*
X016805Y004378D01*
X016817Y004366D01*
X016832Y004357D01*
X016847Y004351D01*
X016864Y004348D01*
X016864Y004357D01*
X016849Y004360D01*
X016835Y004365D01*
X016823Y004373D01*
X016812Y004384D01*
X016804Y004396D01*
X016799Y004410D01*
X016796Y004425D01*
X016805Y004425D01*
X016808Y004410D01*
X016814Y004397D01*
X016824Y004385D01*
X016836Y004375D01*
X016849Y004369D01*
X016864Y004366D01*
X018073Y004286D02*
X018073Y004376D01*
X018074Y004375D02*
X018086Y004378D01*
X018098Y004383D01*
X018108Y004391D01*
X018116Y004401D01*
X018121Y004413D01*
X018124Y004425D01*
X018213Y004426D01*
X018214Y004425D01*
X018212Y004403D01*
X018206Y004382D01*
X018197Y004362D01*
X018186Y004344D01*
X018172Y004327D01*
X018155Y004313D01*
X018137Y004302D01*
X018117Y004293D01*
X018096Y004287D01*
X018074Y004285D01*
X018074Y004294D01*
X018096Y004297D01*
X018118Y004303D01*
X018138Y004313D01*
X018157Y004326D01*
X018173Y004342D01*
X018186Y004361D01*
X018196Y004381D01*
X018202Y004403D01*
X018205Y004425D01*
X018196Y004425D01*
X018193Y004404D01*
X018187Y004384D01*
X018178Y004365D01*
X018166Y004348D01*
X018151Y004333D01*
X018134Y004321D01*
X018115Y004312D01*
X018095Y004306D01*
X018074Y004303D01*
X018074Y004312D01*
X018093Y004315D01*
X018112Y004320D01*
X018129Y004329D01*
X018145Y004340D01*
X018159Y004354D01*
X018170Y004370D01*
X018179Y004387D01*
X018184Y004406D01*
X018187Y004425D01*
X018178Y004425D01*
X018175Y004405D01*
X018169Y004386D01*
X018159Y004368D01*
X018146Y004353D01*
X018131Y004340D01*
X018113Y004330D01*
X018094Y004324D01*
X018074Y004321D01*
X018074Y004330D01*
X018092Y004333D01*
X018110Y004339D01*
X018126Y004348D01*
X018140Y004359D01*
X018151Y004373D01*
X018160Y004389D01*
X018166Y004407D01*
X018169Y004425D01*
X018160Y004425D01*
X018157Y004409D01*
X018152Y004393D01*
X018144Y004378D01*
X018133Y004366D01*
X018121Y004355D01*
X018106Y004347D01*
X018090Y004342D01*
X018074Y004339D01*
X018074Y004348D01*
X018091Y004351D01*
X018106Y004357D01*
X018121Y004366D01*
X018133Y004378D01*
X018142Y004393D01*
X018148Y004408D01*
X018151Y004425D01*
X018142Y004425D01*
X018139Y004410D01*
X018134Y004396D01*
X018126Y004384D01*
X018115Y004373D01*
X018103Y004365D01*
X018089Y004360D01*
X018074Y004357D01*
X018074Y004366D01*
X018089Y004369D01*
X018102Y004375D01*
X018114Y004385D01*
X018124Y004397D01*
X018130Y004410D01*
X018133Y004425D01*
X018213Y004934D02*
X018123Y004934D01*
X018124Y004935D02*
X018121Y004947D01*
X018116Y004959D01*
X018108Y004969D01*
X018098Y004977D01*
X018086Y004982D01*
X018074Y004985D01*
X018073Y005074D01*
X018074Y005075D01*
X018096Y005073D01*
X018117Y005067D01*
X018137Y005058D01*
X018155Y005047D01*
X018172Y005033D01*
X018186Y005016D01*
X018197Y004998D01*
X018206Y004978D01*
X018212Y004957D01*
X018214Y004935D01*
X018205Y004935D01*
X018202Y004957D01*
X018196Y004979D01*
X018186Y004999D01*
X018173Y005018D01*
X018157Y005034D01*
X018138Y005047D01*
X018118Y005057D01*
X018096Y005063D01*
X018074Y005066D01*
X018074Y005057D01*
X018095Y005054D01*
X018115Y005048D01*
X018134Y005039D01*
X018151Y005027D01*
X018166Y005012D01*
X018178Y004995D01*
X018187Y004976D01*
X018193Y004956D01*
X018196Y004935D01*
X018187Y004935D01*
X018184Y004954D01*
X018179Y004973D01*
X018170Y004990D01*
X018159Y005006D01*
X018145Y005020D01*
X018129Y005031D01*
X018112Y005040D01*
X018093Y005045D01*
X018074Y005048D01*
X018074Y005039D01*
X018094Y005036D01*
X018113Y005030D01*
X018131Y005020D01*
X018146Y005007D01*
X018159Y004992D01*
X018169Y004974D01*
X018175Y004955D01*
X018178Y004935D01*
X018169Y004935D01*
X018166Y004953D01*
X018160Y004971D01*
X018151Y004987D01*
X018140Y005001D01*
X018126Y005012D01*
X018110Y005021D01*
X018092Y005027D01*
X018074Y005030D01*
X018074Y005021D01*
X018090Y005018D01*
X018106Y005013D01*
X018121Y005005D01*
X018133Y004994D01*
X018144Y004982D01*
X018152Y004967D01*
X018157Y004951D01*
X018160Y004935D01*
X018151Y004935D01*
X018148Y004952D01*
X018142Y004967D01*
X018133Y004982D01*
X018121Y004994D01*
X018106Y005003D01*
X018091Y005009D01*
X018074Y005012D01*
X018074Y005003D01*
X018089Y005000D01*
X018103Y004995D01*
X018115Y004987D01*
X018126Y004976D01*
X018134Y004964D01*
X018139Y004950D01*
X018142Y004935D01*
X018133Y004935D01*
X018130Y004950D01*
X018124Y004963D01*
X018114Y004975D01*
X018102Y004985D01*
X018089Y004991D01*
X018074Y004994D01*
X016865Y005074D02*
X016865Y004984D01*
X016864Y004985D02*
X016852Y004982D01*
X016840Y004977D01*
X016830Y004969D01*
X016822Y004959D01*
X016817Y004947D01*
X016814Y004935D01*
X016725Y004934D01*
X016724Y004935D01*
X016726Y004957D01*
X016732Y004978D01*
X016741Y004998D01*
X016752Y005016D01*
X016766Y005033D01*
X016783Y005047D01*
X016801Y005058D01*
X016821Y005067D01*
X016842Y005073D01*
X016864Y005075D01*
X016864Y005066D01*
X016842Y005063D01*
X016820Y005057D01*
X016800Y005047D01*
X016781Y005034D01*
X016765Y005018D01*
X016752Y004999D01*
X016742Y004979D01*
X016736Y004957D01*
X016733Y004935D01*
X016742Y004935D01*
X016745Y004956D01*
X016751Y004976D01*
X016760Y004995D01*
X016772Y005012D01*
X016787Y005027D01*
X016804Y005039D01*
X016823Y005048D01*
X016843Y005054D01*
X016864Y005057D01*
X016864Y005048D01*
X016845Y005045D01*
X016826Y005040D01*
X016809Y005031D01*
X016793Y005020D01*
X016779Y005006D01*
X016768Y004990D01*
X016759Y004973D01*
X016754Y004954D01*
X016751Y004935D01*
X016760Y004935D01*
X016763Y004955D01*
X016769Y004974D01*
X016779Y004992D01*
X016792Y005007D01*
X016807Y005020D01*
X016825Y005030D01*
X016844Y005036D01*
X016864Y005039D01*
X016864Y005030D01*
X016846Y005027D01*
X016828Y005021D01*
X016812Y005012D01*
X016798Y005001D01*
X016787Y004987D01*
X016778Y004971D01*
X016772Y004953D01*
X016769Y004935D01*
X016778Y004935D01*
X016781Y004951D01*
X016786Y004967D01*
X016794Y004982D01*
X016805Y004994D01*
X016817Y005005D01*
X016832Y005013D01*
X016848Y005018D01*
X016864Y005021D01*
X016864Y005012D01*
X016847Y005009D01*
X016832Y005003D01*
X016817Y004994D01*
X016805Y004982D01*
X016796Y004967D01*
X016790Y004952D01*
X016787Y004935D01*
X016796Y004935D01*
X016799Y004950D01*
X016804Y004964D01*
X016812Y004976D01*
X016823Y004987D01*
X016835Y004995D01*
X016849Y005000D01*
X016864Y005003D01*
X016864Y004994D01*
X016849Y004991D01*
X016836Y004985D01*
X016824Y004975D01*
X016814Y004963D01*
X016808Y004950D01*
X016805Y004935D01*
X016725Y005926D02*
X016815Y005926D01*
X016814Y005925D02*
X016817Y005913D01*
X016822Y005901D01*
X016830Y005891D01*
X016840Y005883D01*
X016852Y005878D01*
X016864Y005875D01*
X016865Y005786D01*
X016864Y005785D01*
X016842Y005787D01*
X016821Y005793D01*
X016801Y005802D01*
X016783Y005813D01*
X016766Y005827D01*
X016752Y005844D01*
X016741Y005862D01*
X016732Y005882D01*
X016726Y005903D01*
X016724Y005925D01*
X016733Y005925D01*
X016736Y005903D01*
X016742Y005881D01*
X016752Y005861D01*
X016765Y005842D01*
X016781Y005826D01*
X016800Y005813D01*
X016820Y005803D01*
X016842Y005797D01*
X016864Y005794D01*
X016864Y005803D01*
X016843Y005806D01*
X016823Y005812D01*
X016804Y005821D01*
X016787Y005833D01*
X016772Y005848D01*
X016760Y005865D01*
X016751Y005884D01*
X016745Y005904D01*
X016742Y005925D01*
X016751Y005925D01*
X016754Y005906D01*
X016759Y005887D01*
X016768Y005870D01*
X016779Y005854D01*
X016793Y005840D01*
X016809Y005829D01*
X016826Y005820D01*
X016845Y005815D01*
X016864Y005812D01*
X016864Y005821D01*
X016844Y005824D01*
X016825Y005830D01*
X016807Y005840D01*
X016792Y005853D01*
X016779Y005868D01*
X016769Y005886D01*
X016763Y005905D01*
X016760Y005925D01*
X016769Y005925D01*
X016772Y005907D01*
X016778Y005889D01*
X016787Y005873D01*
X016798Y005859D01*
X016812Y005848D01*
X016828Y005839D01*
X016846Y005833D01*
X016864Y005830D01*
X016864Y005839D01*
X016848Y005842D01*
X016832Y005847D01*
X016817Y005855D01*
X016805Y005866D01*
X016794Y005878D01*
X016786Y005893D01*
X016781Y005909D01*
X016778Y005925D01*
X016787Y005925D01*
X016790Y005908D01*
X016796Y005893D01*
X016805Y005878D01*
X016817Y005866D01*
X016832Y005857D01*
X016847Y005851D01*
X016864Y005848D01*
X016864Y005857D01*
X016849Y005860D01*
X016835Y005865D01*
X016823Y005873D01*
X016812Y005884D01*
X016804Y005896D01*
X016799Y005910D01*
X016796Y005925D01*
X016805Y005925D01*
X016808Y005910D01*
X016814Y005897D01*
X016824Y005885D01*
X016836Y005875D01*
X016849Y005869D01*
X016864Y005866D01*
X018073Y005786D02*
X018073Y005876D01*
X018074Y005875D02*
X018086Y005878D01*
X018098Y005883D01*
X018108Y005891D01*
X018116Y005901D01*
X018121Y005913D01*
X018124Y005925D01*
X018213Y005926D01*
X018214Y005925D01*
X018212Y005903D01*
X018206Y005882D01*
X018197Y005862D01*
X018186Y005844D01*
X018172Y005827D01*
X018155Y005813D01*
X018137Y005802D01*
X018117Y005793D01*
X018096Y005787D01*
X018074Y005785D01*
X018074Y005794D01*
X018096Y005797D01*
X018118Y005803D01*
X018138Y005813D01*
X018157Y005826D01*
X018173Y005842D01*
X018186Y005861D01*
X018196Y005881D01*
X018202Y005903D01*
X018205Y005925D01*
X018196Y005925D01*
X018193Y005904D01*
X018187Y005884D01*
X018178Y005865D01*
X018166Y005848D01*
X018151Y005833D01*
X018134Y005821D01*
X018115Y005812D01*
X018095Y005806D01*
X018074Y005803D01*
X018074Y005812D01*
X018093Y005815D01*
X018112Y005820D01*
X018129Y005829D01*
X018145Y005840D01*
X018159Y005854D01*
X018170Y005870D01*
X018179Y005887D01*
X018184Y005906D01*
X018187Y005925D01*
X018178Y005925D01*
X018175Y005905D01*
X018169Y005886D01*
X018159Y005868D01*
X018146Y005853D01*
X018131Y005840D01*
X018113Y005830D01*
X018094Y005824D01*
X018074Y005821D01*
X018074Y005830D01*
X018092Y005833D01*
X018110Y005839D01*
X018126Y005848D01*
X018140Y005859D01*
X018151Y005873D01*
X018160Y005889D01*
X018166Y005907D01*
X018169Y005925D01*
X018160Y005925D01*
X018157Y005909D01*
X018152Y005893D01*
X018144Y005878D01*
X018133Y005866D01*
X018121Y005855D01*
X018106Y005847D01*
X018090Y005842D01*
X018074Y005839D01*
X018074Y005848D01*
X018091Y005851D01*
X018106Y005857D01*
X018121Y005866D01*
X018133Y005878D01*
X018142Y005893D01*
X018148Y005908D01*
X018151Y005925D01*
X018142Y005925D01*
X018139Y005910D01*
X018134Y005896D01*
X018126Y005884D01*
X018115Y005873D01*
X018103Y005865D01*
X018089Y005860D01*
X018074Y005857D01*
X018074Y005866D01*
X018089Y005869D01*
X018102Y005875D01*
X018114Y005885D01*
X018124Y005897D01*
X018130Y005910D01*
X018133Y005925D01*
X018213Y006434D02*
X018123Y006434D01*
X018124Y006435D02*
X018121Y006447D01*
X018116Y006459D01*
X018108Y006469D01*
X018098Y006477D01*
X018086Y006482D01*
X018074Y006485D01*
X018073Y006574D01*
X018074Y006575D01*
X018096Y006573D01*
X018117Y006567D01*
X018137Y006558D01*
X018155Y006547D01*
X018172Y006533D01*
X018186Y006516D01*
X018197Y006498D01*
X018206Y006478D01*
X018212Y006457D01*
X018214Y006435D01*
X018205Y006435D01*
X018202Y006457D01*
X018196Y006479D01*
X018186Y006499D01*
X018173Y006518D01*
X018157Y006534D01*
X018138Y006547D01*
X018118Y006557D01*
X018096Y006563D01*
X018074Y006566D01*
X018074Y006557D01*
X018095Y006554D01*
X018115Y006548D01*
X018134Y006539D01*
X018151Y006527D01*
X018166Y006512D01*
X018178Y006495D01*
X018187Y006476D01*
X018193Y006456D01*
X018196Y006435D01*
X018187Y006435D01*
X018184Y006454D01*
X018179Y006473D01*
X018170Y006490D01*
X018159Y006506D01*
X018145Y006520D01*
X018129Y006531D01*
X018112Y006540D01*
X018093Y006545D01*
X018074Y006548D01*
X018074Y006539D01*
X018094Y006536D01*
X018113Y006530D01*
X018131Y006520D01*
X018146Y006507D01*
X018159Y006492D01*
X018169Y006474D01*
X018175Y006455D01*
X018178Y006435D01*
X018169Y006435D01*
X018166Y006453D01*
X018160Y006471D01*
X018151Y006487D01*
X018140Y006501D01*
X018126Y006512D01*
X018110Y006521D01*
X018092Y006527D01*
X018074Y006530D01*
X018074Y006521D01*
X018090Y006518D01*
X018106Y006513D01*
X018121Y006505D01*
X018133Y006494D01*
X018144Y006482D01*
X018152Y006467D01*
X018157Y006451D01*
X018160Y006435D01*
X018151Y006435D01*
X018148Y006452D01*
X018142Y006467D01*
X018133Y006482D01*
X018121Y006494D01*
X018106Y006503D01*
X018091Y006509D01*
X018074Y006512D01*
X018074Y006503D01*
X018089Y006500D01*
X018103Y006495D01*
X018115Y006487D01*
X018126Y006476D01*
X018134Y006464D01*
X018139Y006450D01*
X018142Y006435D01*
X018133Y006435D01*
X018130Y006450D01*
X018124Y006463D01*
X018114Y006475D01*
X018102Y006485D01*
X018089Y006491D01*
X018074Y006494D01*
X016865Y006574D02*
X016865Y006484D01*
X016864Y006485D02*
X016852Y006482D01*
X016840Y006477D01*
X016830Y006469D01*
X016822Y006459D01*
X016817Y006447D01*
X016814Y006435D01*
X016725Y006434D01*
X016724Y006435D01*
X016726Y006457D01*
X016732Y006478D01*
X016741Y006498D01*
X016752Y006516D01*
X016766Y006533D01*
X016783Y006547D01*
X016801Y006558D01*
X016821Y006567D01*
X016842Y006573D01*
X016864Y006575D01*
X016864Y006566D01*
X016842Y006563D01*
X016820Y006557D01*
X016800Y006547D01*
X016781Y006534D01*
X016765Y006518D01*
X016752Y006499D01*
X016742Y006479D01*
X016736Y006457D01*
X016733Y006435D01*
X016742Y006435D01*
X016745Y006456D01*
X016751Y006476D01*
X016760Y006495D01*
X016772Y006512D01*
X016787Y006527D01*
X016804Y006539D01*
X016823Y006548D01*
X016843Y006554D01*
X016864Y006557D01*
X016864Y006548D01*
X016845Y006545D01*
X016826Y006540D01*
X016809Y006531D01*
X016793Y006520D01*
X016779Y006506D01*
X016768Y006490D01*
X016759Y006473D01*
X016754Y006454D01*
X016751Y006435D01*
X016760Y006435D01*
X016763Y006455D01*
X016769Y006474D01*
X016779Y006492D01*
X016792Y006507D01*
X016807Y006520D01*
X016825Y006530D01*
X016844Y006536D01*
X016864Y006539D01*
X016864Y006530D01*
X016846Y006527D01*
X016828Y006521D01*
X016812Y006512D01*
X016798Y006501D01*
X016787Y006487D01*
X016778Y006471D01*
X016772Y006453D01*
X016769Y006435D01*
X016778Y006435D01*
X016781Y006451D01*
X016786Y006467D01*
X016794Y006482D01*
X016805Y006494D01*
X016817Y006505D01*
X016832Y006513D01*
X016848Y006518D01*
X016864Y006521D01*
X016864Y006512D01*
X016847Y006509D01*
X016832Y006503D01*
X016817Y006494D01*
X016805Y006482D01*
X016796Y006467D01*
X016790Y006452D01*
X016787Y006435D01*
X016796Y006435D01*
X016799Y006450D01*
X016804Y006464D01*
X016812Y006476D01*
X016823Y006487D01*
X016835Y006495D01*
X016849Y006500D01*
X016864Y006503D01*
X016864Y006494D01*
X016849Y006491D01*
X016836Y006485D01*
X016824Y006475D01*
X016814Y006463D01*
X016808Y006450D01*
X016805Y006435D01*
D16*
X016719Y006180D03*
X018219Y006180D03*
X018219Y004680D03*
X016719Y004680D03*
X016719Y003180D03*
X018219Y003180D03*
X008203Y001680D03*
X006703Y001680D03*
D17*
X005977Y000972D02*
X005977Y000522D01*
X006127Y000522D02*
X005826Y000522D01*
X005666Y000522D02*
X005366Y000522D01*
X005366Y000972D01*
X005826Y000822D02*
X005977Y000972D01*
X002245Y003251D02*
X001458Y003054D01*
X000671Y003251D01*
X000671Y003448D01*
X000671Y005023D01*
X000671Y005220D01*
X001458Y005417D01*
X002245Y005220D01*
X002245Y003251D01*
X000671Y003449D02*
X000618Y003470D01*
X000568Y003495D01*
X000519Y003524D01*
X000472Y003556D01*
X000427Y003590D01*
X000385Y003628D01*
X000345Y003669D01*
X000309Y003712D01*
X000275Y003757D01*
X000244Y003805D01*
X000217Y003854D01*
X000193Y003905D01*
X000172Y003958D01*
X000155Y004012D01*
X000142Y004067D01*
X000133Y004123D01*
X000127Y004179D01*
X000125Y004236D01*
X000127Y004293D01*
X000133Y004349D01*
X000142Y004405D01*
X000155Y004460D01*
X000172Y004514D01*
X000193Y004567D01*
X000217Y004618D01*
X000244Y004667D01*
X000275Y004715D01*
X000309Y004760D01*
X000345Y004803D01*
X000385Y004844D01*
X000427Y004882D01*
X000472Y004916D01*
X000519Y004948D01*
X000568Y004977D01*
X000618Y005002D01*
X000671Y005023D01*
X002416Y006473D02*
X002491Y006397D01*
X002566Y006397D01*
X002641Y006473D01*
X002641Y006848D01*
X002566Y006848D02*
X002717Y006848D01*
X002877Y006848D02*
X003102Y006848D01*
X003177Y006773D01*
X003177Y006623D01*
X003102Y006548D01*
X002877Y006548D01*
X002877Y006397D02*
X002877Y006848D01*
X003337Y006773D02*
X003412Y006848D01*
X003562Y006848D01*
X003637Y006773D01*
X003637Y006698D01*
X003337Y006397D01*
X003637Y006397D01*
X005943Y005301D02*
X006018Y005376D01*
X006168Y005376D01*
X006243Y005301D01*
X006403Y005226D02*
X006553Y005376D01*
X006553Y004925D01*
X006403Y004925D02*
X006703Y004925D01*
X006243Y005001D02*
X006243Y005076D01*
X006168Y005151D01*
X006018Y005151D01*
X005943Y005226D01*
X005943Y005301D01*
X005943Y005001D02*
X006018Y004925D01*
X006168Y004925D01*
X006243Y005001D01*
X020070Y006421D02*
X020145Y006346D01*
X020220Y006346D01*
X020295Y006421D01*
X020295Y006797D01*
X020220Y006797D02*
X020370Y006797D01*
X020530Y006797D02*
X020755Y006797D01*
X020830Y006722D01*
X020830Y006571D01*
X020755Y006496D01*
X020530Y006496D01*
X020530Y006346D02*
X020530Y006797D01*
X020991Y006647D02*
X021141Y006797D01*
X021141Y006346D01*
X020991Y006346D02*
X021291Y006346D01*
D18*
X019417Y002334D03*
X014890Y002278D03*
D19*
X019417Y001884D03*
X019417Y003484D03*
D20*
X017119Y001680D03*
D21*
X016669Y001680D03*
X018269Y001680D03*
D22*
X013126Y001430D03*
X013126Y002930D03*
D23*
X020630Y002641D03*
X020630Y003641D03*
X020630Y004641D03*
X020630Y005641D03*
X002925Y005735D03*
X002925Y004735D03*
X002925Y003735D03*
X002925Y002735D03*
D24*
X001440Y000844D03*
X001940Y000684D03*
D25*
X001960Y000694D03*
X002000Y001784D03*
D26*
X001950Y000704D03*
D27*
X001955Y000714D03*
D28*
X001950Y000724D03*
D29*
X001955Y000734D03*
D30*
X001950Y000744D03*
D31*
X001960Y000754D03*
X001960Y001634D03*
D32*
X001960Y000764D03*
D33*
X001960Y000774D03*
D34*
X001955Y000784D03*
D35*
X001955Y000794D03*
D36*
X001960Y000804D03*
D37*
X001960Y000814D03*
D38*
X001960Y000824D03*
D39*
X001550Y000834D03*
D40*
X002365Y000834D03*
X001995Y001884D03*
D41*
X002010Y001954D03*
X001480Y001574D03*
X002490Y001564D03*
X002470Y000844D03*
D42*
X002525Y000864D03*
X001405Y000854D03*
X001415Y001554D03*
D43*
X001440Y001564D03*
X001980Y001964D03*
X002520Y001554D03*
X002510Y000854D03*
D44*
X001390Y000864D03*
X002550Y001544D03*
D45*
X002580Y001524D03*
X002010Y001844D03*
X001390Y001544D03*
X001370Y000874D03*
X002560Y000884D03*
D46*
X002540Y000874D03*
X002570Y001534D03*
D47*
X002600Y001504D03*
X002610Y001494D03*
X002000Y001974D03*
X001350Y000894D03*
X001360Y000884D03*
D48*
X002565Y000894D03*
X002595Y001514D03*
X002005Y001814D03*
X002005Y001824D03*
X002005Y001834D03*
X001375Y001534D03*
D49*
X001350Y001514D03*
X002620Y001484D03*
X002590Y000924D03*
X001340Y000904D03*
D50*
X002575Y000904D03*
X002585Y000914D03*
X001365Y001524D03*
D51*
X001345Y001504D03*
X002625Y001474D03*
X002625Y001464D03*
X002635Y001454D03*
X002635Y001444D03*
X002605Y000954D03*
X002605Y000944D03*
X002595Y000934D03*
X001335Y000914D03*
D52*
X001330Y000924D03*
X002610Y000964D03*
X002640Y001424D03*
X002640Y001434D03*
X002290Y001734D03*
X001330Y001494D03*
D53*
X001325Y001484D03*
X001325Y001474D03*
X002645Y001414D03*
X002645Y001404D03*
X002645Y001394D03*
X002645Y001384D03*
X002645Y001374D03*
X002645Y001364D03*
X002625Y001024D03*
X002625Y001014D03*
X002615Y000994D03*
X002615Y000984D03*
X002615Y000974D03*
X001325Y000944D03*
X001325Y000934D03*
X001315Y000954D03*
D54*
X001310Y000964D03*
X001310Y000974D03*
X001310Y000984D03*
X001300Y001024D03*
X001320Y001464D03*
X001720Y001794D03*
X002650Y001354D03*
X002650Y001344D03*
X002650Y001334D03*
X002650Y001324D03*
X002650Y001314D03*
X002650Y001304D03*
X002650Y001294D03*
X002650Y001284D03*
X002650Y001274D03*
X002650Y001264D03*
X002650Y001254D03*
X002650Y001244D03*
X002650Y001234D03*
X002650Y001224D03*
X002640Y001194D03*
X002640Y001184D03*
X002640Y001174D03*
X002640Y001164D03*
X002640Y001154D03*
X002640Y001144D03*
X002640Y001134D03*
X002640Y001124D03*
X002640Y001114D03*
X002640Y001104D03*
X002630Y001074D03*
X002630Y001064D03*
X002630Y001054D03*
X002630Y001044D03*
X002630Y001034D03*
X002620Y001004D03*
D55*
X002635Y001084D03*
X002635Y001094D03*
X002645Y001204D03*
X002645Y001214D03*
X001315Y001454D03*
X001305Y001444D03*
X001305Y001434D03*
X001295Y001404D03*
X001295Y001074D03*
X001295Y001064D03*
X001295Y001054D03*
X001295Y001044D03*
X001295Y001034D03*
X001305Y001014D03*
X001305Y001004D03*
X001305Y000994D03*
D56*
X001290Y001084D03*
X001290Y001094D03*
X001290Y001104D03*
X001290Y001114D03*
X001290Y001124D03*
X001290Y001134D03*
X001290Y001144D03*
X001290Y001154D03*
X001290Y001164D03*
X001290Y001174D03*
X001290Y001184D03*
X001290Y001194D03*
X001290Y001204D03*
X001290Y001214D03*
X001290Y001334D03*
X001290Y001344D03*
X001290Y001354D03*
X001290Y001364D03*
X001290Y001374D03*
X001290Y001384D03*
X001290Y001394D03*
X001300Y001414D03*
X001300Y001424D03*
D57*
X001285Y001324D03*
X001285Y001314D03*
X001285Y001304D03*
X001285Y001294D03*
X001285Y001284D03*
X001285Y001274D03*
X001285Y001264D03*
X001285Y001254D03*
X001285Y001244D03*
X001285Y001234D03*
X001285Y001224D03*
X001715Y001804D03*
X002295Y001794D03*
D58*
X002090Y001864D03*
X002450Y001574D03*
D59*
X001975Y001584D03*
D60*
X001975Y001594D03*
D61*
X001970Y001604D03*
D62*
X001965Y001614D03*
D63*
X001965Y001624D03*
D64*
X001955Y001644D03*
D65*
X001950Y001654D03*
D66*
X001935Y001664D03*
D67*
X001915Y001674D03*
D68*
X001890Y001684D03*
D69*
X001870Y001694D03*
D70*
X002375Y001724D03*
D71*
X002005Y001744D03*
D72*
X002000Y001754D03*
D73*
X002000Y001764D03*
X002000Y001774D03*
D74*
X001995Y001794D03*
D75*
X002005Y001804D03*
X002015Y001854D03*
D76*
X002295Y001814D03*
X002295Y001804D03*
X001715Y001824D03*
D77*
X001710Y001814D03*
X002000Y001984D03*
D78*
X001740Y001864D03*
X001730Y001854D03*
X001720Y001844D03*
X001720Y001834D03*
X002290Y001824D03*
D79*
X002285Y001834D03*
X002285Y001844D03*
X002275Y001854D03*
D80*
X002000Y001874D03*
D81*
X001995Y001894D03*
D82*
X002000Y001904D03*
D83*
X002000Y001914D03*
D84*
X002000Y001924D03*
D85*
X001995Y001934D03*
D86*
X002005Y001944D03*
D87*
X002205Y001964D03*
X002245Y002014D03*
X002265Y002044D03*
X001805Y001984D03*
X001795Y002004D03*
X001775Y002034D03*
X001765Y002044D03*
X001755Y002064D03*
D88*
X001760Y002054D03*
X001780Y002024D03*
X001790Y002014D03*
X001800Y001994D03*
X001810Y001974D03*
X002210Y001974D03*
X002220Y001984D03*
X002230Y001994D03*
X002240Y002004D03*
X002250Y002024D03*
X002260Y002034D03*
D89*
X002270Y002054D03*
M02*
