%
M48
M72
T01C0.0320
T02C0.0340
T03C0.0354
T04C0.0400
T05C0.0430
T06C0.0590
%
T01
X1458Y3251
X1458Y4236
X1458Y5220
X14890Y2478
X14890Y1678
T02
X16469Y1680
X18469Y1680
X19417Y1684
X18469Y3180
X19417Y3684
X18469Y4680
X16469Y4680
X16469Y3180
X13126Y3180
X11087Y1613
X10087Y1613
X8453Y1680
X6453Y1680
X13126Y1180
X16469Y6180
X18469Y6180
T03
X12047Y6180
X12047Y5180
X12047Y4180
X12047Y3180
X9047Y3180
X9047Y4180
X9047Y5180
X9047Y6180
T04
X6729Y6890
X4949Y6890
X2925Y5735
X2925Y4735
X2925Y3735
X2925Y2735
X20630Y2641
X20630Y3641
X20630Y4641
X20630Y5641
T05
X4217Y1680
X5217Y1680
T06
X4459Y5910
X7219Y5910
M30
