G75*
%MOIN*%
%OFA0B0*%
%FSLAX24Y24*%
%IPPOS*%
%LPD*%
%AMOC8*
5,1,8,0,0,1.08239X$1,22.5*
%
%ADD10C,0.0600*%
%ADD11C,0.0700*%
%ADD12R,0.0700X0.0700*%
%ADD13R,0.0600X0.0600*%
%ADD14R,0.0520X0.0520*%
%ADD15C,0.0520*%
%ADD16C,0.0600*%
%ADD17OC8,0.0600*%
%ADD18C,0.0885*%
%ADD19C,0.0520*%
%ADD20C,0.0160*%
D10*
X006453Y001680D03*
X008453Y001680D03*
X010087Y001613D03*
X011087Y001613D03*
X013126Y001180D03*
X013126Y003180D03*
X012047Y004180D03*
X012047Y005180D03*
X012047Y006180D03*
X009047Y006180D03*
X009047Y005180D03*
X009047Y004180D03*
X009047Y003180D03*
X016469Y003180D03*
X018469Y003180D03*
X019417Y003684D03*
X018469Y004680D03*
X016469Y004680D03*
X016469Y006180D03*
X018469Y006180D03*
X018469Y001680D03*
D11*
X005217Y001680D03*
D12*
X004217Y001680D03*
D13*
X012047Y003180D03*
X016469Y001680D03*
X019417Y001684D03*
D14*
X014890Y002478D03*
D15*
X014890Y001678D03*
D16*
X020330Y002641D02*
X020930Y002641D01*
X020930Y003641D02*
X020330Y003641D01*
X020330Y004641D02*
X020930Y004641D01*
X020930Y005641D02*
X020330Y005641D01*
X003225Y005735D02*
X002625Y005735D01*
X002625Y004735D02*
X003225Y004735D01*
X003225Y003735D02*
X002625Y003735D01*
X002625Y002735D02*
X003225Y002735D01*
D17*
X004949Y006890D03*
X006729Y006890D03*
D18*
X007219Y005910D03*
X004459Y005910D03*
D19*
X001718Y005220D02*
X001198Y005220D01*
X001198Y004236D02*
X001718Y004236D01*
X001718Y003251D02*
X001198Y003251D01*
D20*
X000922Y002905D02*
X000922Y000460D01*
X021622Y000460D01*
X021622Y007774D01*
X000922Y007774D01*
X000922Y005566D01*
X000949Y005593D01*
X001111Y005660D01*
X001806Y005660D01*
X001967Y005593D01*
X002091Y005469D01*
X002158Y005307D01*
X002158Y005132D01*
X002091Y004971D01*
X001967Y004847D01*
X001806Y004780D01*
X001111Y004780D01*
X000949Y004847D01*
X000922Y004874D01*
X000922Y004579D01*
X000967Y004612D01*
X001029Y004643D01*
X001095Y004665D01*
X001163Y004676D01*
X001458Y004676D01*
X001458Y004236D01*
X001458Y004236D01*
X001458Y004676D01*
X001753Y004676D01*
X001821Y004665D01*
X001887Y004643D01*
X001949Y004612D01*
X002005Y004571D01*
X002054Y004522D01*
X002094Y004466D01*
X002126Y004404D01*
X002147Y004339D01*
X002158Y004270D01*
X002158Y004236D01*
X001458Y004236D01*
X001458Y004236D01*
X002158Y004236D01*
X002158Y004201D01*
X002147Y004133D01*
X002126Y004067D01*
X002094Y004005D01*
X002054Y003949D01*
X002005Y003900D01*
X001949Y003859D01*
X001887Y003828D01*
X001821Y003806D01*
X001753Y003796D01*
X001458Y003796D01*
X001458Y004236D01*
X001458Y004236D01*
X001458Y003796D01*
X001163Y003796D01*
X001095Y003806D01*
X001029Y003828D01*
X000967Y003859D01*
X000922Y003892D01*
X000922Y003597D01*
X000949Y003624D01*
X001111Y003691D01*
X001806Y003691D01*
X001967Y003624D01*
X002091Y003501D01*
X002158Y003339D01*
X002158Y003164D01*
X002091Y003002D01*
X001967Y002878D01*
X001806Y002811D01*
X001111Y002811D01*
X000949Y002878D01*
X000922Y002905D01*
X000922Y002875D02*
X000958Y002875D01*
X000922Y002716D02*
X002905Y002716D01*
X002905Y002715D02*
X002145Y002715D01*
X002145Y002697D01*
X002157Y002623D01*
X002180Y002551D01*
X002215Y002484D01*
X002259Y002422D01*
X002313Y002369D01*
X002374Y002325D01*
X002441Y002290D01*
X002513Y002267D01*
X002587Y002255D01*
X002905Y002255D01*
X002905Y002715D01*
X002905Y002755D01*
X002145Y002755D01*
X002145Y002773D01*
X002157Y002848D01*
X002180Y002919D01*
X002215Y002987D01*
X002259Y003048D01*
X002313Y003101D01*
X002374Y003146D01*
X002441Y003180D01*
X002513Y003203D01*
X002587Y003215D01*
X002905Y003215D01*
X002905Y002755D01*
X002945Y002755D01*
X002945Y003215D01*
X003263Y003215D01*
X003338Y003203D01*
X003409Y003180D01*
X003477Y003146D01*
X003538Y003101D01*
X003591Y003048D01*
X003636Y002987D01*
X003670Y002919D01*
X003693Y002848D01*
X003705Y002773D01*
X003705Y002755D01*
X002945Y002755D01*
X002945Y002715D01*
X002945Y002255D01*
X003263Y002255D01*
X003338Y002267D01*
X003409Y002290D01*
X003477Y002325D01*
X003538Y002369D01*
X003591Y002422D01*
X003636Y002484D01*
X003670Y002551D01*
X003693Y002623D01*
X003705Y002697D01*
X003705Y002715D01*
X002945Y002715D01*
X002905Y002715D01*
X002945Y002716D02*
X004785Y002716D01*
X004944Y002558D02*
X003672Y002558D01*
X003568Y002399D02*
X004949Y002399D01*
X004949Y002553D02*
X004949Y002143D01*
X004916Y002129D01*
X004767Y001980D01*
X004747Y001930D01*
X004747Y002054D01*
X004734Y002099D01*
X004711Y002141D01*
X004677Y002174D01*
X004636Y002198D01*
X004590Y002210D01*
X004244Y002210D01*
X004244Y001708D01*
X004189Y001708D01*
X004189Y002210D01*
X003843Y002210D01*
X003797Y002198D01*
X003756Y002174D01*
X003723Y002141D01*
X003699Y002099D01*
X003687Y002054D01*
X003687Y001708D01*
X004189Y001708D01*
X004189Y001652D01*
X004244Y001652D01*
X004244Y001150D01*
X004590Y001150D01*
X004636Y001162D01*
X004677Y001186D01*
X004711Y001219D01*
X004734Y001261D01*
X004747Y001306D01*
X004747Y001430D01*
X004767Y001380D01*
X004916Y001231D01*
X005111Y001150D01*
X005322Y001150D01*
X005517Y001231D01*
X005666Y001380D01*
X005683Y001420D01*
X006041Y001420D01*
X006046Y001408D01*
X006181Y001273D01*
X006357Y001200D01*
X006548Y001200D01*
X006725Y001273D01*
X006860Y001408D01*
X006933Y001585D01*
X006933Y001775D01*
X006860Y001952D01*
X006725Y002087D01*
X006548Y002160D01*
X006357Y002160D01*
X006181Y002087D01*
X006046Y001952D01*
X006041Y001940D01*
X005683Y001940D01*
X005666Y001980D01*
X005517Y002129D01*
X005469Y002149D01*
X005469Y002712D01*
X005429Y002808D01*
X005356Y002881D01*
X003674Y004563D01*
X003705Y004640D01*
X003705Y004831D01*
X003632Y005007D01*
X003497Y005142D01*
X003321Y005215D01*
X002530Y005215D01*
X002353Y005142D01*
X002218Y005007D01*
X002145Y004831D01*
X002145Y004640D01*
X002218Y004463D01*
X002353Y004328D01*
X002530Y004255D01*
X003246Y004255D01*
X003286Y004215D01*
X002530Y004215D01*
X002353Y004142D01*
X002218Y004007D01*
X002145Y003831D01*
X002145Y003640D01*
X002218Y003463D01*
X002353Y003328D01*
X002530Y003255D01*
X003321Y003255D01*
X003497Y003328D01*
X003632Y003463D01*
X003705Y003640D01*
X003705Y003796D01*
X004949Y002553D01*
X005209Y002660D02*
X005209Y001688D01*
X005217Y001680D01*
X006453Y001680D01*
X006933Y001607D02*
X007973Y001607D01*
X007973Y001585D02*
X008046Y001408D01*
X008181Y001273D01*
X008357Y001200D01*
X008548Y001200D01*
X008725Y001273D01*
X008860Y001408D01*
X008865Y001420D01*
X008926Y001420D01*
X009021Y001460D01*
X010159Y002597D01*
X010232Y002671D01*
X010272Y002766D01*
X010272Y004267D01*
X010232Y004363D01*
X009522Y005073D01*
X009527Y005085D01*
X009527Y005275D01*
X009454Y005452D01*
X009319Y005587D01*
X009143Y005660D01*
X008952Y005660D01*
X008775Y005587D01*
X008640Y005452D01*
X008567Y005275D01*
X008567Y005085D01*
X008640Y004908D01*
X008775Y004773D01*
X008952Y004700D01*
X009143Y004700D01*
X009155Y004705D01*
X009240Y004620D01*
X009143Y004660D01*
X008952Y004660D01*
X008775Y004587D01*
X008640Y004452D01*
X008567Y004275D01*
X008567Y004085D01*
X008640Y003908D01*
X008775Y003773D01*
X008952Y003700D01*
X009143Y003700D01*
X009319Y003773D01*
X009454Y003908D01*
X009527Y004085D01*
X009527Y004275D01*
X009487Y004372D01*
X009752Y004108D01*
X009752Y002925D01*
X008819Y001993D01*
X008725Y002087D01*
X008548Y002160D01*
X008357Y002160D01*
X008181Y002087D01*
X008046Y001952D01*
X007973Y001775D01*
X007973Y001585D01*
X008029Y001448D02*
X006876Y001448D01*
X006741Y001290D02*
X008164Y001290D01*
X008741Y001290D02*
X009731Y001290D01*
X009721Y001300D02*
X009774Y001247D01*
X009835Y001203D01*
X009902Y001168D01*
X009974Y001145D01*
X010049Y001133D01*
X010082Y001133D01*
X010082Y001608D01*
X010092Y001608D01*
X010092Y001618D01*
X010567Y001618D01*
X010567Y001651D01*
X010555Y001725D01*
X010531Y001797D01*
X010497Y001865D01*
X010453Y001926D01*
X010399Y001979D01*
X010338Y002024D01*
X010271Y002058D01*
X010199Y002081D01*
X010124Y002093D01*
X010092Y002093D01*
X010092Y001618D01*
X010082Y001618D01*
X010082Y002093D01*
X010049Y002093D01*
X009974Y002081D01*
X009902Y002058D01*
X009835Y002024D01*
X009774Y001979D01*
X009721Y001926D01*
X009676Y001865D01*
X009642Y001797D01*
X009618Y001725D01*
X009607Y001651D01*
X009607Y001618D01*
X010082Y001618D01*
X010082Y001608D01*
X009607Y001608D01*
X009607Y001575D01*
X009618Y001501D01*
X009642Y001429D01*
X009676Y001361D01*
X009721Y001300D01*
X010082Y001290D02*
X010092Y001290D01*
X010199Y001145D02*
X010271Y001168D01*
X010338Y001203D01*
X010399Y001247D01*
X010453Y001300D01*
X010497Y001361D01*
X010531Y001429D01*
X010555Y001501D01*
X010567Y001575D01*
X010567Y001608D01*
X010092Y001608D01*
X010092Y001133D01*
X010124Y001133D01*
X010199Y001145D01*
X010442Y001290D02*
X010731Y001290D01*
X010680Y001341D02*
X010815Y001206D01*
X010991Y001133D01*
X011182Y001133D01*
X011359Y001206D01*
X011494Y001341D01*
X011567Y001518D01*
X011567Y001709D01*
X011494Y001885D01*
X011359Y002020D01*
X011182Y002093D01*
X010991Y002093D01*
X010815Y002020D01*
X010680Y001885D01*
X010607Y001709D01*
X010607Y001518D01*
X010680Y001341D01*
X010635Y001448D02*
X010538Y001448D01*
X010567Y001607D02*
X010607Y001607D01*
X010630Y001765D02*
X010542Y001765D01*
X010454Y001924D02*
X010718Y001924D01*
X010964Y002082D02*
X010194Y002082D01*
X010092Y002082D02*
X010082Y002082D01*
X009979Y002082D02*
X009644Y002082D01*
X009719Y001924D02*
X009485Y001924D01*
X009631Y001765D02*
X009327Y001765D01*
X009168Y001607D02*
X009607Y001607D01*
X009636Y001448D02*
X008993Y001448D01*
X008874Y001680D02*
X008453Y001680D01*
X008874Y001680D02*
X010012Y002818D01*
X010012Y004215D01*
X009047Y005180D01*
X008567Y005252D02*
X002158Y005252D01*
X002353Y005328D02*
X002530Y005255D01*
X003321Y005255D01*
X003497Y005328D01*
X003632Y005463D01*
X003705Y005640D01*
X003705Y005831D01*
X003632Y006007D01*
X003497Y006142D01*
X003321Y006215D01*
X002530Y006215D01*
X002353Y006142D01*
X002218Y006007D01*
X002145Y005831D01*
X002145Y005640D01*
X002218Y005463D01*
X002353Y005328D01*
X002271Y005411D02*
X002115Y005411D01*
X002174Y005569D02*
X001991Y005569D01*
X002145Y005728D02*
X000922Y005728D01*
X000922Y005886D02*
X002168Y005886D01*
X002256Y006045D02*
X000922Y006045D01*
X000922Y006203D02*
X002501Y006203D01*
X003350Y006203D02*
X003906Y006203D01*
X003931Y006263D02*
X003836Y006034D01*
X003836Y005787D01*
X003931Y005558D01*
X004106Y005383D01*
X004335Y005288D01*
X004582Y005288D01*
X004811Y005383D01*
X004986Y005558D01*
X005081Y005787D01*
X005081Y006034D01*
X004986Y006263D01*
X004839Y006410D01*
X004929Y006410D01*
X004929Y006870D01*
X004969Y006870D01*
X004969Y006910D01*
X005429Y006910D01*
X005429Y007089D01*
X005147Y007370D01*
X004969Y007370D01*
X004969Y006910D01*
X004929Y006910D01*
X004929Y006870D01*
X004469Y006870D01*
X004469Y006692D01*
X004659Y006501D01*
X004582Y006533D01*
X004335Y006533D01*
X004106Y006438D01*
X003931Y006263D01*
X004029Y006362D02*
X000922Y006362D01*
X000922Y006520D02*
X004304Y006520D01*
X004614Y006520D02*
X004640Y006520D01*
X004929Y006520D02*
X004969Y006520D01*
X005257Y006520D02*
X006420Y006520D01*
X006530Y006410D02*
X006249Y006692D01*
X006249Y007089D01*
X006530Y007370D01*
X006927Y007370D01*
X007165Y007133D01*
X007662Y007133D01*
X007758Y007093D01*
X007831Y007020D01*
X008411Y006440D01*
X008635Y006440D01*
X008640Y006452D01*
X008775Y006587D01*
X008952Y006660D01*
X009143Y006660D01*
X009319Y006587D01*
X009454Y006452D01*
X009527Y006275D01*
X009527Y006085D01*
X009454Y005908D01*
X009319Y005773D01*
X009143Y005700D01*
X008952Y005700D01*
X008775Y005773D01*
X008640Y005908D01*
X008635Y005920D01*
X008251Y005920D01*
X008156Y005960D01*
X007503Y006613D01*
X007130Y006613D01*
X007018Y006501D01*
X007095Y006533D01*
X007342Y006533D01*
X007571Y006438D01*
X007746Y006263D01*
X007841Y006034D01*
X007841Y005787D01*
X007746Y005558D01*
X007571Y005383D01*
X007342Y005288D01*
X007095Y005288D01*
X006866Y005383D01*
X006691Y005558D01*
X006596Y005787D01*
X006596Y006034D01*
X006691Y006263D01*
X006838Y006410D01*
X006530Y006410D01*
X006789Y006362D02*
X004888Y006362D01*
X004969Y006410D02*
X005147Y006410D01*
X005429Y006692D01*
X005429Y006870D01*
X004969Y006870D01*
X004969Y006410D01*
X005011Y006203D02*
X006666Y006203D01*
X006600Y006045D02*
X005077Y006045D01*
X005081Y005886D02*
X006596Y005886D01*
X006621Y005728D02*
X005057Y005728D01*
X004991Y005569D02*
X006686Y005569D01*
X006838Y005411D02*
X004839Y005411D01*
X004078Y005411D02*
X003579Y005411D01*
X003676Y005569D02*
X003926Y005569D01*
X003861Y005728D02*
X003705Y005728D01*
X003682Y005886D02*
X003836Y005886D01*
X003840Y006045D02*
X003595Y006045D01*
X004482Y006679D02*
X000922Y006679D01*
X000922Y006837D02*
X004469Y006837D01*
X004469Y006910D02*
X004929Y006910D01*
X004929Y007370D01*
X004750Y007370D01*
X004469Y007089D01*
X004469Y006910D01*
X004469Y006996D02*
X000922Y006996D01*
X000922Y007154D02*
X004533Y007154D01*
X004692Y007313D02*
X000922Y007313D01*
X000922Y007471D02*
X021622Y007471D01*
X021622Y007313D02*
X006985Y007313D01*
X007144Y007154D02*
X021622Y007154D01*
X021622Y006996D02*
X007855Y006996D01*
X008014Y006837D02*
X021622Y006837D01*
X021622Y006679D02*
X008172Y006679D01*
X008331Y006520D02*
X008708Y006520D01*
X009386Y006520D02*
X011708Y006520D01*
X011735Y006546D02*
X011681Y006493D01*
X011637Y006432D01*
X011602Y006364D01*
X011579Y006292D01*
X011567Y006218D01*
X011567Y006189D01*
X012039Y006189D01*
X012039Y006660D01*
X012010Y006660D01*
X011935Y006648D01*
X011863Y006625D01*
X011796Y006591D01*
X011735Y006546D01*
X012039Y006520D02*
X012056Y006520D01*
X012056Y006660D02*
X012056Y006189D01*
X012039Y006189D01*
X012039Y006171D01*
X012056Y006171D01*
X012056Y005700D01*
X012085Y005700D01*
X012160Y005712D01*
X012232Y005735D01*
X012299Y005769D01*
X012360Y005814D01*
X012413Y005867D01*
X012458Y005928D01*
X012492Y005996D01*
X012515Y006068D01*
X012527Y006142D01*
X012527Y006171D01*
X012056Y006171D01*
X012056Y006189D01*
X012527Y006189D01*
X012527Y006218D01*
X012515Y006292D01*
X012492Y006364D01*
X012458Y006432D01*
X012413Y006493D01*
X012360Y006546D01*
X012299Y006591D01*
X012232Y006625D01*
X012160Y006648D01*
X012085Y006660D01*
X012056Y006660D01*
X012386Y006520D02*
X016130Y006520D01*
X016197Y006587D02*
X016062Y006452D01*
X015989Y006275D01*
X015989Y006085D01*
X016062Y005908D01*
X016197Y005773D01*
X016373Y005700D01*
X016564Y005700D01*
X016740Y005773D01*
X016875Y005908D01*
X016949Y006085D01*
X016949Y006275D01*
X016875Y006452D01*
X016740Y006587D01*
X016564Y006660D01*
X016373Y006660D01*
X016197Y006587D01*
X016024Y006362D02*
X012493Y006362D01*
X012527Y006203D02*
X015989Y006203D01*
X016005Y006045D02*
X012508Y006045D01*
X012427Y005886D02*
X016084Y005886D01*
X016307Y005728D02*
X012208Y005728D01*
X012143Y005660D02*
X011952Y005660D01*
X011775Y005587D01*
X011640Y005452D01*
X011567Y005275D01*
X011567Y005085D01*
X011640Y004908D01*
X011775Y004773D01*
X011952Y004700D01*
X012143Y004700D01*
X012319Y004773D01*
X012454Y004908D01*
X012527Y005085D01*
X012527Y005275D01*
X012454Y005452D01*
X012319Y005587D01*
X012143Y005660D01*
X012056Y005728D02*
X012039Y005728D01*
X012039Y005700D02*
X012039Y006171D01*
X011567Y006171D01*
X011567Y006142D01*
X011579Y006068D01*
X011602Y005996D01*
X011637Y005928D01*
X011681Y005867D01*
X011735Y005814D01*
X011796Y005769D01*
X011863Y005735D01*
X011935Y005712D01*
X012010Y005700D01*
X012039Y005700D01*
X011887Y005728D02*
X009209Y005728D01*
X008885Y005728D02*
X007817Y005728D01*
X007841Y005886D02*
X008662Y005886D01*
X008071Y006045D02*
X007837Y006045D01*
X007771Y006203D02*
X007912Y006203D01*
X007754Y006362D02*
X007648Y006362D01*
X007595Y006520D02*
X007374Y006520D01*
X007064Y006520D02*
X007037Y006520D01*
X006262Y006679D02*
X005415Y006679D01*
X005429Y006837D02*
X006249Y006837D01*
X006249Y006996D02*
X005429Y006996D01*
X005364Y007154D02*
X006313Y007154D01*
X006472Y007313D02*
X005205Y007313D01*
X004969Y007313D02*
X004929Y007313D01*
X004929Y007154D02*
X004969Y007154D01*
X004969Y006996D02*
X004929Y006996D01*
X004929Y006837D02*
X004969Y006837D01*
X004969Y006679D02*
X004929Y006679D01*
X006729Y006890D02*
X006746Y006873D01*
X007610Y006873D01*
X008303Y006180D01*
X009047Y006180D01*
X009492Y006362D02*
X011602Y006362D01*
X011567Y006203D02*
X009527Y006203D01*
X009511Y006045D02*
X011587Y006045D01*
X011668Y005886D02*
X009432Y005886D01*
X009337Y005569D02*
X011757Y005569D01*
X011623Y005411D02*
X009471Y005411D01*
X009527Y005252D02*
X011567Y005252D01*
X011567Y005094D02*
X009527Y005094D01*
X009660Y004935D02*
X011629Y004935D01*
X011772Y004777D02*
X009818Y004777D01*
X009977Y004618D02*
X011850Y004618D01*
X011775Y004587D02*
X011640Y004452D01*
X011567Y004275D01*
X011567Y004085D01*
X011640Y003908D01*
X011775Y003773D01*
X011952Y003700D01*
X012143Y003700D01*
X012319Y003773D01*
X012454Y003908D01*
X012527Y004085D01*
X012527Y004275D01*
X012454Y004452D01*
X012319Y004587D01*
X012143Y004660D01*
X011952Y004660D01*
X011775Y004587D01*
X011648Y004460D02*
X010135Y004460D01*
X010258Y004301D02*
X011578Y004301D01*
X011567Y004143D02*
X010272Y004143D01*
X010272Y003984D02*
X011609Y003984D01*
X011723Y003826D02*
X010272Y003826D01*
X010272Y003667D02*
X018937Y003667D01*
X018937Y003588D02*
X019010Y003412D01*
X019145Y003277D01*
X019322Y003204D01*
X019513Y003204D01*
X019689Y003277D01*
X019824Y003412D01*
X019865Y003510D01*
X019923Y003369D01*
X020058Y003234D01*
X020234Y003161D01*
X021025Y003161D01*
X021202Y003234D01*
X021337Y003369D01*
X021410Y003545D01*
X021410Y003736D01*
X021337Y003913D01*
X021202Y004048D01*
X021025Y004121D01*
X020234Y004121D01*
X020058Y004048D01*
X019923Y003913D01*
X019883Y003815D01*
X019824Y003956D01*
X019689Y004091D01*
X019513Y004164D01*
X019322Y004164D01*
X019145Y004091D01*
X019010Y003956D01*
X018937Y003779D01*
X018937Y003588D01*
X018970Y003509D02*
X018819Y003509D01*
X018875Y003452D02*
X018740Y003587D01*
X018564Y003660D01*
X018373Y003660D01*
X018197Y003587D01*
X018062Y003452D01*
X017989Y003275D01*
X017989Y003085D01*
X018062Y002908D01*
X018197Y002773D01*
X018373Y002700D01*
X018564Y002700D01*
X018740Y002773D01*
X018875Y002908D01*
X018949Y003085D01*
X018949Y003275D01*
X018875Y003452D01*
X018918Y003350D02*
X019072Y003350D01*
X018949Y003192D02*
X020160Y003192D01*
X020234Y003121D02*
X020058Y003048D01*
X019923Y002913D01*
X019850Y002736D01*
X019850Y002545D01*
X019923Y002369D01*
X020058Y002234D01*
X020234Y002161D01*
X021025Y002161D01*
X021202Y002234D01*
X021337Y002369D01*
X021410Y002545D01*
X021410Y002736D01*
X021337Y002913D01*
X021202Y003048D01*
X021025Y003121D01*
X020234Y003121D01*
X020044Y003033D02*
X018927Y003033D01*
X018842Y002875D02*
X019907Y002875D01*
X019850Y002716D02*
X018603Y002716D01*
X018334Y002716D02*
X016603Y002716D01*
X016564Y002700D02*
X016740Y002773D01*
X016875Y002908D01*
X016949Y003085D01*
X016949Y003275D01*
X016875Y003452D01*
X016740Y003587D01*
X016564Y003660D01*
X016373Y003660D01*
X016197Y003587D01*
X016062Y003452D01*
X015989Y003275D01*
X015989Y003085D01*
X016062Y002908D01*
X016197Y002773D01*
X016373Y002700D01*
X016564Y002700D01*
X016334Y002716D02*
X015330Y002716D01*
X015330Y002761D02*
X015318Y002807D01*
X015294Y002848D01*
X015260Y002882D01*
X015219Y002905D01*
X015174Y002918D01*
X014890Y002918D01*
X014890Y002478D01*
X014890Y002478D01*
X015330Y002478D01*
X015330Y002761D01*
X015267Y002875D02*
X016095Y002875D01*
X016010Y003033D02*
X013585Y003033D01*
X013606Y003085D02*
X013533Y002908D01*
X013398Y002773D01*
X013222Y002700D01*
X013031Y002700D01*
X012854Y002773D01*
X012719Y002908D01*
X012714Y002920D01*
X012527Y002920D01*
X012527Y002805D01*
X012422Y002700D01*
X011673Y002700D01*
X011567Y002805D01*
X011567Y003555D01*
X011673Y003660D01*
X012422Y003660D01*
X012527Y003555D01*
X012527Y003440D01*
X012714Y003440D01*
X012719Y003452D01*
X012854Y003587D01*
X013031Y003660D01*
X013222Y003660D01*
X013398Y003587D01*
X013533Y003452D01*
X013606Y003275D01*
X013606Y003085D01*
X013606Y003192D02*
X015989Y003192D01*
X016019Y003350D02*
X013575Y003350D01*
X013476Y003509D02*
X016118Y003509D01*
X016819Y003509D02*
X018118Y003509D01*
X018019Y003350D02*
X016918Y003350D01*
X016949Y003192D02*
X017989Y003192D01*
X018010Y003033D02*
X016927Y003033D01*
X016842Y002875D02*
X018095Y002875D01*
X018373Y002160D02*
X018197Y002087D01*
X018062Y001952D01*
X017989Y001775D01*
X017989Y001585D01*
X018062Y001408D01*
X018197Y001273D01*
X018373Y001200D01*
X018564Y001200D01*
X018740Y001273D01*
X018875Y001408D01*
X018937Y001558D01*
X018937Y001309D01*
X019043Y001204D01*
X019792Y001204D01*
X019897Y001309D01*
X019897Y002058D01*
X019792Y002164D01*
X019043Y002164D01*
X018937Y002058D01*
X018937Y001802D01*
X018875Y001952D01*
X018740Y002087D01*
X018564Y002160D01*
X018373Y002160D01*
X018192Y002082D02*
X016921Y002082D01*
X016949Y002055D02*
X016843Y002160D01*
X016094Y002160D01*
X015989Y002055D01*
X015989Y001305D01*
X016094Y001200D01*
X016843Y001200D01*
X016949Y001305D01*
X016949Y002055D01*
X016949Y001924D02*
X018050Y001924D01*
X017989Y001765D02*
X016949Y001765D01*
X016949Y001607D02*
X017989Y001607D01*
X018045Y001448D02*
X016949Y001448D01*
X016933Y001290D02*
X018180Y001290D01*
X018757Y001290D02*
X018957Y001290D01*
X018937Y001448D02*
X018892Y001448D01*
X019877Y001290D02*
X021622Y001290D01*
X021622Y001448D02*
X019897Y001448D01*
X019897Y001607D02*
X021622Y001607D01*
X021622Y001765D02*
X019897Y001765D01*
X019897Y001924D02*
X021622Y001924D01*
X021622Y002082D02*
X019874Y002082D01*
X020051Y002241D02*
X015330Y002241D01*
X015330Y002194D02*
X015330Y002478D01*
X014890Y002478D01*
X014890Y002478D01*
X014890Y002918D01*
X014606Y002918D01*
X014560Y002905D01*
X014519Y002882D01*
X014486Y002848D01*
X014462Y002807D01*
X014450Y002761D01*
X014450Y002478D01*
X014890Y002478D01*
X014890Y002478D01*
X014450Y002478D01*
X014450Y002194D01*
X014462Y002148D01*
X014486Y002107D01*
X014519Y002074D01*
X014560Y002050D01*
X014606Y002038D01*
X014628Y002038D01*
X014517Y001927D01*
X014450Y001765D01*
X011543Y001765D01*
X011567Y001607D02*
X012901Y001607D01*
X012854Y001587D02*
X012719Y001452D01*
X012646Y001275D01*
X012646Y001085D01*
X012719Y000908D01*
X012854Y000773D01*
X013031Y000700D01*
X013222Y000700D01*
X013398Y000773D01*
X013533Y000908D01*
X013606Y001085D01*
X013606Y001275D01*
X013533Y001452D01*
X013398Y001587D01*
X013222Y001660D01*
X013031Y001660D01*
X012854Y001587D01*
X012717Y001448D02*
X011538Y001448D01*
X011442Y001290D02*
X012652Y001290D01*
X012646Y001131D02*
X000922Y001131D01*
X000922Y000973D02*
X012692Y000973D01*
X012813Y000814D02*
X000922Y000814D01*
X000922Y000656D02*
X021622Y000656D01*
X021622Y000497D02*
X000922Y000497D01*
X000922Y001290D02*
X003691Y001290D01*
X003687Y001306D02*
X003699Y001261D01*
X003723Y001219D01*
X003756Y001186D01*
X003797Y001162D01*
X003843Y001150D01*
X004189Y001150D01*
X004189Y001652D01*
X003687Y001652D01*
X003687Y001306D01*
X003687Y001448D02*
X000922Y001448D01*
X000922Y001607D02*
X003687Y001607D01*
X003687Y001765D02*
X000922Y001765D01*
X000922Y001924D02*
X003687Y001924D01*
X003694Y002082D02*
X000922Y002082D01*
X000922Y002241D02*
X004949Y002241D01*
X004869Y002082D02*
X004739Y002082D01*
X004244Y002082D02*
X004189Y002082D01*
X004189Y001924D02*
X004244Y001924D01*
X004244Y001765D02*
X004189Y001765D01*
X004189Y001607D02*
X004244Y001607D01*
X004244Y001448D02*
X004189Y001448D01*
X004189Y001290D02*
X004244Y001290D01*
X004742Y001290D02*
X004858Y001290D01*
X005576Y001290D02*
X006164Y001290D01*
X006933Y001765D02*
X007973Y001765D01*
X008034Y001924D02*
X006871Y001924D01*
X006730Y002082D02*
X008176Y002082D01*
X008730Y002082D02*
X008908Y002082D01*
X009067Y002241D02*
X005469Y002241D01*
X005469Y002399D02*
X009225Y002399D01*
X009384Y002558D02*
X005469Y002558D01*
X005467Y002716D02*
X008913Y002716D01*
X008952Y002700D02*
X009143Y002700D01*
X009319Y002773D01*
X009454Y002908D01*
X009527Y003085D01*
X009527Y003275D01*
X009454Y003452D01*
X009319Y003587D01*
X009143Y003660D01*
X008952Y003660D01*
X008775Y003587D01*
X008640Y003452D01*
X008567Y003275D01*
X008567Y003085D01*
X008640Y002908D01*
X008775Y002773D01*
X008952Y002700D01*
X009181Y002716D02*
X009542Y002716D01*
X009421Y002875D02*
X009701Y002875D01*
X009752Y003033D02*
X009506Y003033D01*
X009527Y003192D02*
X009752Y003192D01*
X009752Y003350D02*
X009496Y003350D01*
X009398Y003509D02*
X009752Y003509D01*
X009752Y003667D02*
X004570Y003667D01*
X004728Y003509D02*
X008697Y003509D01*
X008598Y003350D02*
X004887Y003350D01*
X005045Y003192D02*
X008567Y003192D01*
X008589Y003033D02*
X005204Y003033D01*
X005362Y002875D02*
X008674Y002875D01*
X009961Y002399D02*
X014450Y002399D01*
X014450Y002241D02*
X009802Y002241D01*
X010082Y001924D02*
X010092Y001924D01*
X010082Y001765D02*
X010092Y001765D01*
X010082Y001607D02*
X010092Y001607D01*
X010082Y001448D02*
X010092Y001448D01*
X011455Y001924D02*
X014515Y001924D01*
X014511Y002082D02*
X011209Y002082D01*
X010119Y002558D02*
X014450Y002558D01*
X014450Y002716D02*
X013260Y002716D01*
X012992Y002716D02*
X012438Y002716D01*
X012527Y002875D02*
X012753Y002875D01*
X013126Y003180D02*
X012047Y003180D01*
X011567Y003192D02*
X010272Y003192D01*
X010272Y003350D02*
X011567Y003350D01*
X011567Y003509D02*
X010272Y003509D01*
X009752Y003826D02*
X009372Y003826D01*
X009486Y003984D02*
X009752Y003984D01*
X009717Y004143D02*
X009527Y004143D01*
X009517Y004301D02*
X009559Y004301D01*
X008850Y004618D02*
X003696Y004618D01*
X003705Y004777D02*
X008772Y004777D01*
X008629Y004935D02*
X003662Y004935D01*
X003546Y005094D02*
X008567Y005094D01*
X008623Y005411D02*
X007599Y005411D01*
X007751Y005569D02*
X008757Y005569D01*
X008648Y004460D02*
X003777Y004460D01*
X003936Y004301D02*
X008578Y004301D01*
X008567Y004143D02*
X004094Y004143D01*
X004253Y003984D02*
X008609Y003984D01*
X008723Y003826D02*
X004411Y003826D01*
X003834Y003667D02*
X003705Y003667D01*
X003651Y003509D02*
X003993Y003509D01*
X004151Y003350D02*
X003519Y003350D01*
X003374Y003192D02*
X004310Y003192D01*
X004468Y003033D02*
X003602Y003033D01*
X003685Y002875D02*
X004627Y002875D01*
X005209Y002660D02*
X003134Y004735D01*
X002925Y004735D01*
X002222Y004460D02*
X002098Y004460D01*
X002154Y004618D02*
X001937Y004618D01*
X002145Y004777D02*
X000922Y004777D01*
X000922Y004618D02*
X000979Y004618D01*
X001458Y004618D02*
X001458Y004618D01*
X001458Y004460D02*
X001458Y004460D01*
X001458Y004301D02*
X001458Y004301D01*
X001458Y004143D02*
X001458Y004143D01*
X001458Y003984D02*
X001458Y003984D01*
X001458Y003826D02*
X001458Y003826D01*
X001036Y003826D02*
X000922Y003826D01*
X000922Y003667D02*
X001052Y003667D01*
X001864Y003667D02*
X002145Y003667D01*
X002145Y003826D02*
X001880Y003826D01*
X002079Y003984D02*
X002209Y003984D01*
X002149Y004143D02*
X002354Y004143D01*
X002419Y004301D02*
X002153Y004301D01*
X002188Y004935D02*
X002055Y004935D01*
X002142Y005094D02*
X002305Y005094D01*
X000925Y005569D02*
X000922Y005569D01*
X000922Y007630D02*
X021622Y007630D01*
X021622Y006520D02*
X018807Y006520D01*
X018740Y006587D02*
X018564Y006660D01*
X018373Y006660D01*
X018197Y006587D01*
X018062Y006452D01*
X017989Y006275D01*
X017989Y006085D01*
X018062Y005908D01*
X018197Y005773D01*
X018373Y005700D01*
X018564Y005700D01*
X018740Y005773D01*
X018875Y005908D01*
X018949Y006085D01*
X018949Y006275D01*
X018875Y006452D01*
X018740Y006587D01*
X018913Y006362D02*
X021622Y006362D01*
X021622Y006203D02*
X018949Y006203D01*
X018932Y006045D02*
X020069Y006045D01*
X020078Y006051D02*
X020017Y006007D01*
X019964Y005953D01*
X019919Y005892D01*
X019885Y005825D01*
X019862Y005753D01*
X019850Y005678D01*
X019850Y005661D01*
X020610Y005661D01*
X020610Y006121D01*
X020292Y006121D01*
X020218Y006109D01*
X020146Y006085D01*
X020078Y006051D01*
X019916Y005886D02*
X018853Y005886D01*
X018630Y005728D02*
X019858Y005728D01*
X019850Y005621D02*
X019850Y005603D01*
X019862Y005528D01*
X019885Y005456D01*
X019919Y005389D01*
X019964Y005328D01*
X020017Y005275D01*
X020078Y005230D01*
X020146Y005196D01*
X020218Y005172D01*
X020292Y005161D01*
X020610Y005161D01*
X020610Y005621D01*
X019850Y005621D01*
X019855Y005569D02*
X012337Y005569D01*
X012471Y005411D02*
X019908Y005411D01*
X020048Y005252D02*
X012527Y005252D01*
X012527Y005094D02*
X016213Y005094D01*
X016197Y005087D02*
X016062Y004952D01*
X015989Y004775D01*
X015989Y004585D01*
X016062Y004408D01*
X016197Y004273D01*
X016373Y004200D01*
X016564Y004200D01*
X016740Y004273D01*
X016875Y004408D01*
X016949Y004585D01*
X016949Y004775D01*
X016875Y004952D01*
X016740Y005087D01*
X016564Y005160D01*
X016373Y005160D01*
X016197Y005087D01*
X016055Y004935D02*
X012465Y004935D01*
X012323Y004777D02*
X015989Y004777D01*
X015989Y004618D02*
X012244Y004618D01*
X012447Y004460D02*
X016040Y004460D01*
X016169Y004301D02*
X012517Y004301D01*
X012527Y004143D02*
X019270Y004143D01*
X019565Y004143D02*
X021622Y004143D01*
X021337Y004369D02*
X021202Y004234D01*
X021025Y004161D01*
X020234Y004161D01*
X020058Y004234D01*
X019923Y004369D01*
X019850Y004545D01*
X019850Y004736D01*
X019923Y004913D01*
X020058Y005048D01*
X020234Y005121D01*
X021025Y005121D01*
X021202Y005048D01*
X021337Y004913D01*
X021410Y004736D01*
X021410Y004545D01*
X021337Y004369D01*
X021269Y004301D02*
X021622Y004301D01*
X021622Y004460D02*
X021374Y004460D01*
X021410Y004618D02*
X021622Y004618D01*
X021622Y004777D02*
X021393Y004777D01*
X021314Y004935D02*
X021622Y004935D01*
X021622Y005094D02*
X021091Y005094D01*
X021042Y005172D02*
X020968Y005161D01*
X020650Y005161D01*
X020650Y005621D01*
X020650Y005661D01*
X020610Y005661D01*
X020610Y005621D01*
X020650Y005621D01*
X021410Y005621D01*
X021410Y005603D01*
X021398Y005528D01*
X021375Y005456D01*
X021340Y005389D01*
X021296Y005328D01*
X021243Y005275D01*
X021182Y005230D01*
X021114Y005196D01*
X021042Y005172D01*
X021212Y005252D02*
X021622Y005252D01*
X021622Y005411D02*
X021351Y005411D01*
X021405Y005569D02*
X021622Y005569D01*
X021410Y005661D02*
X021410Y005678D01*
X021398Y005753D01*
X021375Y005825D01*
X021340Y005892D01*
X021296Y005953D01*
X021243Y006007D01*
X021182Y006051D01*
X021114Y006085D01*
X021042Y006109D01*
X020968Y006121D01*
X020650Y006121D01*
X020650Y005661D01*
X021410Y005661D01*
X021402Y005728D02*
X021622Y005728D01*
X021622Y005886D02*
X021344Y005886D01*
X021191Y006045D02*
X021622Y006045D01*
X020650Y006045D02*
X020610Y006045D01*
X020610Y005886D02*
X020650Y005886D01*
X020650Y005728D02*
X020610Y005728D01*
X020610Y005569D02*
X020650Y005569D01*
X020650Y005411D02*
X020610Y005411D01*
X020610Y005252D02*
X020650Y005252D01*
X020169Y005094D02*
X018725Y005094D01*
X018740Y005087D02*
X018564Y005160D01*
X018373Y005160D01*
X018197Y005087D01*
X018062Y004952D01*
X017989Y004775D01*
X017989Y004585D01*
X018062Y004408D01*
X018197Y004273D01*
X018373Y004200D01*
X018564Y004200D01*
X018740Y004273D01*
X018875Y004408D01*
X018949Y004585D01*
X018949Y004775D01*
X018875Y004952D01*
X018740Y005087D01*
X018882Y004935D02*
X019946Y004935D01*
X019867Y004777D02*
X018948Y004777D01*
X018949Y004618D02*
X019850Y004618D01*
X019885Y004460D02*
X018897Y004460D01*
X018768Y004301D02*
X019991Y004301D01*
X019995Y003984D02*
X019796Y003984D01*
X019878Y003826D02*
X019887Y003826D01*
X019864Y003509D02*
X019865Y003509D01*
X019942Y003350D02*
X019762Y003350D01*
X018956Y003826D02*
X012372Y003826D01*
X012486Y003984D02*
X019039Y003984D01*
X018169Y004301D02*
X016768Y004301D01*
X016897Y004460D02*
X018040Y004460D01*
X017989Y004618D02*
X016949Y004618D01*
X016948Y004777D02*
X017989Y004777D01*
X018055Y004935D02*
X016882Y004935D01*
X016725Y005094D02*
X018213Y005094D01*
X018307Y005728D02*
X016630Y005728D01*
X016853Y005886D02*
X018084Y005886D01*
X018005Y006045D02*
X016932Y006045D01*
X016949Y006203D02*
X017989Y006203D01*
X018024Y006362D02*
X016913Y006362D01*
X016807Y006520D02*
X018130Y006520D01*
X012056Y006362D02*
X012039Y006362D01*
X012039Y006203D02*
X012056Y006203D01*
X012039Y006045D02*
X012056Y006045D01*
X012039Y005886D02*
X012056Y005886D01*
X012527Y003509D02*
X012776Y003509D01*
X011567Y003033D02*
X010272Y003033D01*
X010272Y002875D02*
X011567Y002875D01*
X011657Y002716D02*
X010251Y002716D01*
X013351Y001607D02*
X014450Y001607D01*
X014450Y001590D02*
X014517Y001428D01*
X014641Y001305D01*
X014802Y001238D01*
X014977Y001238D01*
X015139Y001305D01*
X015263Y001428D01*
X015330Y001590D01*
X015330Y001765D01*
X015989Y001765D01*
X015989Y001607D02*
X015330Y001607D01*
X015330Y001765D02*
X015263Y001927D01*
X015152Y002038D01*
X015174Y002038D01*
X015219Y002050D01*
X015260Y002074D01*
X015294Y002107D01*
X015318Y002148D01*
X015330Y002194D01*
X015269Y002082D02*
X016016Y002082D01*
X015989Y001924D02*
X015264Y001924D01*
X014450Y001765D02*
X014450Y001590D01*
X014509Y001448D02*
X013535Y001448D01*
X013600Y001290D02*
X014677Y001290D01*
X015103Y001290D02*
X016004Y001290D01*
X015989Y001448D02*
X015271Y001448D01*
X013606Y001131D02*
X021622Y001131D01*
X021622Y000973D02*
X013560Y000973D01*
X013439Y000814D02*
X021622Y000814D01*
X018937Y001924D02*
X018887Y001924D01*
X018961Y002082D02*
X018745Y002082D01*
X019850Y002558D02*
X015330Y002558D01*
X015330Y002399D02*
X019910Y002399D01*
X021209Y002241D02*
X021622Y002241D01*
X021622Y002399D02*
X021349Y002399D01*
X021410Y002558D02*
X021622Y002558D01*
X021622Y002716D02*
X021410Y002716D01*
X021353Y002875D02*
X021622Y002875D01*
X021622Y003033D02*
X021216Y003033D01*
X021100Y003192D02*
X021622Y003192D01*
X021622Y003350D02*
X021318Y003350D01*
X021395Y003509D02*
X021622Y003509D01*
X021622Y003667D02*
X021410Y003667D01*
X021373Y003826D02*
X021622Y003826D01*
X021622Y003984D02*
X021265Y003984D01*
X014890Y002875D02*
X014890Y002875D01*
X014890Y002716D02*
X014890Y002716D01*
X014890Y002558D02*
X014890Y002558D01*
X014512Y002875D02*
X013499Y002875D01*
X006176Y002082D02*
X005564Y002082D01*
X002945Y002399D02*
X002905Y002399D01*
X002905Y002558D02*
X002945Y002558D01*
X002945Y002875D02*
X002905Y002875D01*
X002905Y003033D02*
X002945Y003033D01*
X002945Y003192D02*
X002905Y003192D01*
X002477Y003192D02*
X002158Y003192D01*
X002153Y003350D02*
X002332Y003350D01*
X002200Y003509D02*
X002083Y003509D01*
X002104Y003033D02*
X002248Y003033D01*
X002166Y002875D02*
X001958Y002875D01*
X002178Y002558D02*
X000922Y002558D01*
X000922Y002399D02*
X002283Y002399D01*
M02*
