G75*
%MOIN*%
%OFA0B0*%
%FSLAX24Y24*%
%IPPOS*%
%LPD*%
%AMOC8*
5,1,8,0,0,1.08239X$1,22.5*
%
%ADD10C,0.0680*%
%ADD11C,0.0780*%
%ADD12R,0.0780X0.0780*%
%ADD13R,0.0680X0.0680*%
%ADD14R,0.0600X0.0600*%
%ADD15C,0.0600*%
%ADD16C,0.0680*%
%ADD17OC8,0.0680*%
%ADD18C,0.0965*%
%ADD19C,0.0600*%
D10*
X006453Y001680D03*
X008453Y001680D03*
X010087Y001613D03*
X011087Y001613D03*
X013126Y001180D03*
X013126Y003180D03*
X012047Y004180D03*
X012047Y005180D03*
X012047Y006180D03*
X009047Y006180D03*
X009047Y005180D03*
X009047Y004180D03*
X009047Y003180D03*
X016469Y003180D03*
X018469Y003180D03*
X019417Y003684D03*
X018469Y004680D03*
X016469Y004680D03*
X016469Y006180D03*
X018469Y006180D03*
X018469Y001680D03*
D11*
X005217Y001680D03*
D12*
X004217Y001680D03*
D13*
X012047Y003180D03*
X016469Y001680D03*
X019417Y001684D03*
D14*
X014890Y002478D03*
D15*
X014890Y001678D03*
D16*
X020330Y002641D02*
X020930Y002641D01*
X020930Y003641D02*
X020330Y003641D01*
X020330Y004641D02*
X020930Y004641D01*
X020930Y005641D02*
X020330Y005641D01*
X003225Y005735D02*
X002625Y005735D01*
X002625Y004735D02*
X003225Y004735D01*
X003225Y003735D02*
X002625Y003735D01*
X002625Y002735D02*
X003225Y002735D01*
D17*
X004949Y006890D03*
X006729Y006890D03*
D18*
X007219Y005910D03*
X004459Y005910D03*
D19*
X001718Y005220D02*
X001198Y005220D01*
X001198Y004236D02*
X001718Y004236D01*
X001718Y003251D02*
X001198Y003251D01*
M02*
